<svg width="236" height="47" viewBox="0 0 236 47" fill="none" xmlns="http://www.w3.org/2000/svg">
<path fill-rule="evenodd" clip-rule="evenodd" d="M21.6061 36.3747C24.331 38.9594 25.1173 34.7971 25.8097 32.8206C27.562 27.8143 31.4392 16.8125 33.775 10.8237L34.9421 13.964L41.1799 30.7485L47.4176 13.964L48.5847 10.8237C50.9206 16.8125 54.7994 27.8143 56.5517 32.8206C57.2424 34.7971 58.0303 38.9594 60.7552 36.3747C59.9722 33.874 47.6121 0.75 47.6121 0.75L41.1799 17.7851L34.7476 0.75C34.7476 0.75 22.3875 33.8723 21.6045 36.3747" fill="#2E3191"/>
<path d="M64.4235 24.5783C64.7004 24.6706 64.8867 24.6707 65.1637 24.763H65.6269C66.0901 24.8553 66.8302 25.0399 67.4781 25.0399L68.96 25.2245C68.96 25.2245 68.7754 25.3168 68.6831 25.3168L68.5908 25.4092C68.4985 25.5938 68.0353 25.7801 67.8506 25.8724L67.3874 26.1493C67.2951 26.2416 67.2951 26.3339 67.2028 26.3339L66.5549 26.7048C66.4626 26.7048 66.4626 26.7972 66.3703 26.7972C66.3088 26.8587 66.2472 26.8895 66.1857 26.8895L64.4268 28.0928C64.2422 28.2775 63.779 27.9082 63.5004 27.7219L63.1295 27.445C63.0679 27.445 63.0064 27.4142 62.9448 27.3527C62.7602 27.3527 62.4816 27.2604 62.2047 27.3527C61.9277 27.3527 61.9277 27.445 62.0201 27.5373C62.2047 27.7219 62.4833 28.0928 62.7602 28.2775V28.3698L63.0371 28.6467C63.1295 28.739 63.3141 28.9236 63.4081 29.0176L63.2234 29.2946C63.1311 29.3869 62.6679 29.7578 62.8525 29.7578C62.9448 29.7578 62.9448 29.6655 62.9448 29.6655H63.1295C63.3141 29.4808 63.685 29.4808 63.8696 29.3885C64.0542 29.2962 64.5175 29.2039 64.7021 29.0176H64.8867L65.5346 28.7407C65.6269 28.6484 65.7192 28.6484 65.8115 28.556L66.5517 28.1851C66.7363 28.0928 67.1995 27.9082 67.4781 27.7219L69.4216 26.7955V26.9801L69.237 27.1648C69.237 27.2571 69.1447 27.3494 69.1447 27.3494L68.7738 27.9049C68.7738 27.9049 68.6814 27.9972 68.6814 28.0895L68.0336 29.016L67.849 29.4792C67.849 29.6638 68.5891 29.4792 68.7754 29.4792L68.8677 29.3869C68.96 29.3869 69.2386 29.2022 69.3309 29.016C69.4233 28.9237 69.5156 28.8313 69.6079 28.739L69.9788 28.2758V28.1835H70.0711C70.1634 28.0912 70.1634 27.9989 70.2557 27.9066C70.2557 27.8142 70.348 27.9066 70.348 27.8142C70.348 27.7219 70.5327 27.6296 70.5327 27.5373C70.625 27.445 70.7173 27.2604 70.9036 27.1664C70.9036 27.0741 70.9959 27.0741 70.9959 26.9818L71.3668 26.5186L71.4591 26.3339H71.5514V26.2416H71.6437C71.6437 26.1493 71.736 26.1493 71.736 26.1493L71.8283 26.057C71.8283 25.8724 71.9207 25.8724 71.9207 25.8724H72.013C72.013 25.7801 71.9207 25.7801 72.013 25.6877C72.1053 25.5954 72.1053 25.6877 72.1053 25.5954C72.1976 25.5031 72.2899 25.5031 72.4762 25.4108L74.2351 24.3921L74.3274 24.2997C74.512 24.2074 74.6043 24.1151 74.7906 23.9288L74.8829 23.8365C74.9752 23.7442 75.0676 23.7442 75.0676 23.6519C75.2522 23.375 75.1599 23.6519 75.2522 23.375C75.3445 23.2827 76.2709 22.1716 75.0676 22.1716C74.6967 22.1716 74.4197 22.2639 74.0488 22.3562L73.3087 22.6332C73.2471 22.6947 73.1856 22.7255 73.124 22.7255L72.7531 22.9101H72.6608C72.6608 23.0024 72.6608 22.9101 72.5685 23.0024L72.2916 23.187C72.1069 23.187 71.4591 23.6503 71.3651 23.7426C71.0882 23.8349 70.8096 23.7426 70.5327 23.7426C70.348 23.7426 70.348 23.8349 70.1618 23.8349H67.755C67.6627 23.8349 67.5704 23.9272 67.3841 23.9272H65.8098L65.2543 24.0195C65.162 24.0195 65.2543 24.0195 65.162 24.1118C64.9774 24.1118 64.7911 24.2041 64.6065 24.2965C64.5142 24.3888 64.4218 24.4811 64.4218 24.5734L64.4235 24.5783Z" stroke="white" stroke-width="0.46" stroke-miterlimit="2.61"/>
<path fill-rule="evenodd" clip-rule="evenodd" d="M64.4304 24.5635C64.7452 24.6426 64.8771 24.6937 65.192 24.7465L65.6123 24.7992C66.059 24.8256 66.8717 24.9822 67.4487 25.0086L68.9702 25.1668C68.9175 25.2196 68.7609 25.3251 68.6817 25.3498L68.629 25.3762C68.4707 25.5592 68.0784 25.7438 67.8674 25.9004L67.3696 26.1889C67.2904 26.2416 67.2641 26.2944 67.1849 26.3471L66.5816 26.7147C66.4761 26.7411 66.5025 26.7675 66.397 26.8202C66.3179 26.8994 66.3179 26.873 66.214 26.9241L64.4024 28.1307C64.193 28.2626 63.8254 27.9214 63.5369 27.7368L63.1166 27.4747C63.0638 27.4219 63.0374 27.3955 62.9583 27.3692C62.7226 27.3164 62.4605 27.2389 62.1703 27.29C61.961 27.3164 61.9082 27.3955 62.0137 27.4994C62.2495 27.7087 62.5116 28.05 62.7226 28.2873L62.8017 28.3665V28.3929L63.0111 28.6022C63.1429 28.7605 63.2995 28.8907 63.3787 29.0489L63.1957 29.2583C63.1166 29.3902 62.6698 29.7561 62.8545 29.705C62.9336 29.705 62.9072 29.6786 62.96 29.6523L63.1446 29.6259C63.3539 29.494 63.6424 29.4413 63.8798 29.3638C64.0891 29.2583 64.5623 29.1544 64.7452 29.0489C64.7804 29.0313 64.8244 29.0138 64.8771 28.9962L65.5596 28.6813C65.6387 28.6286 65.7178 28.6022 65.7953 28.5495L66.5569 28.2082C66.7662 28.0516 67.1866 27.867 67.4487 27.7368L69.4169 26.7922C69.4697 26.9224 69.3906 26.9505 69.3906 26.9505L69.2603 27.1334L69.234 27.1862C69.2076 27.2389 69.1548 27.3164 69.1285 27.3692L68.7872 27.867C68.7609 27.9197 68.7081 27.9725 68.6817 28.0516L68.0784 28.9698C68.0257 29.0489 68.1048 28.9434 68.052 29.0226L67.8938 29.4429C67.8938 29.6275 68.629 29.522 68.7328 29.4693L68.8911 29.4165C68.9966 29.3902 69.2323 29.1544 69.3625 29.0226C69.468 28.9171 69.5208 28.7868 69.6246 28.6813L69.9659 28.261C69.9835 28.2434 70.001 28.2258 70.0186 28.2082C70.0186 28.1906 70.0274 28.1818 70.045 28.1818C70.1241 28.0763 70.2033 27.9461 70.2807 27.867C70.3071 27.8406 70.3335 27.867 70.3335 27.8142C70.3862 27.7104 70.4917 27.6049 70.5428 27.4994C70.6483 27.3939 70.7258 27.2637 70.8577 27.1845L70.8841 27.1582V27.1318C70.9368 27.0263 70.9632 27.0527 71.0143 26.9488L71.3819 26.5021H71.4083L71.5138 26.3438C71.5314 26.3262 71.5489 26.3087 71.5665 26.2911L71.5929 26.2383L71.6193 26.212C71.672 26.1592 71.6984 26.1856 71.6984 26.1328L71.8039 26.0026C71.8567 25.8971 71.9341 25.8443 71.9622 25.8196H71.9885C72.0413 25.7932 71.9622 25.7669 72.0677 25.6614C72.1204 25.6086 72.094 25.6614 72.1204 25.6086C72.2259 25.4504 72.2506 25.4767 72.4616 25.3729L74.2205 24.3492H74.2469L74.326 24.2701C74.4843 24.1646 74.6409 24.0607 74.7728 23.9025L74.903 23.7722C74.9821 23.7195 75.0612 23.6931 75.086 23.614L75.1123 23.5876C75.2426 23.3783 75.1915 23.5876 75.2953 23.3783C75.3481 23.248 76.2663 22.1716 75.086 22.1716C74.692 22.1716 74.4035 22.2771 74.0623 22.381L73.3007 22.6431C73.2479 22.6694 73.2216 22.6958 73.1705 22.7222L72.7501 22.8804H72.7237L72.6974 22.9068V22.9332C72.6446 22.9859 72.6974 22.9332 72.6182 22.9596L72.3034 23.1425C72.1451 23.2217 71.489 23.6684 71.3324 23.7195C71.0967 23.7722 70.7819 23.7459 70.5709 23.7459C70.3879 23.7459 70.3351 23.7722 70.1769 23.7722C69.3889 23.7722 68.5762 23.8514 67.7883 23.8514C67.63 23.8514 67.5789 23.8777 67.3943 23.8777C66.8701 23.8777 66.3179 23.9041 65.7936 23.9305L65.2694 24.0096C65.2167 24.0096 65.2694 24.0096 65.1903 24.0624C64.981 24.1415 64.7963 24.2206 64.6134 24.3245C64.5342 24.4036 64.4551 24.4547 64.4304 24.5602" fill="#2E3191"/>
<path d="M66.0817 29.6885C64.2304 31.1705 60.1571 34.4097 57.8427 35.6131C57.7504 35.6131 57.7504 35.7054 57.5658 35.7977C57.4734 35.89 57.2888 36.0746 57.1025 36.0746C57.1641 36.1362 57.3185 36.1054 57.5658 35.9823V35.89H57.6581C57.7504 35.7977 62.8424 32.8354 63.0271 32.8354C64.2304 32.1876 65.4338 31.3535 66.7295 30.6133L66.0817 29.6869V29.6885Z" stroke="white" stroke-width="0.46" stroke-miterlimit="2.61"/>
<path fill-rule="evenodd" clip-rule="evenodd" d="M66.0832 29.6803C64.2205 31.1491 60.1521 34.4031 57.869 35.585C57.7651 35.6378 57.7124 35.7153 57.5805 35.7944C57.4503 35.8735 57.292 36.0565 57.1338 36.0829C57.2129 36.162 57.1602 36.1356 57.5278 35.9246L57.5541 35.8983L57.6596 35.8455H57.686C57.7915 35.7664 62.8819 32.8008 63.0138 32.7761C64.2732 32.1464 65.4535 31.332 66.7393 30.6249L66.0832 29.6803Z" fill="#2E3191"/>
<path d="M61.3052 30.6414C61.2129 30.5491 61.2129 30.4567 61.1206 30.3644C61.0283 30.2721 61.0283 30.1798 60.936 30.1798L60.8437 29.9029H60.7514L60.659 29.7182C60.4744 29.8105 60.2881 29.9952 60.0112 30.0891C59.9189 30.2738 59.7343 30.3661 59.548 30.46L59.3634 30.5523C59.271 30.737 59.0864 30.8293 58.9001 30.9232L58.8078 31.0156H58.7155V31.1079L58.5309 31.2002L58.4386 31.2925C58.3463 31.3848 58.4386 31.2925 58.3463 31.2925C58.254 31.3848 58.3463 31.2925 58.3463 31.3848C58.1616 31.4771 57.9754 31.5694 57.8831 31.7557H57.6984C57.6984 31.9403 57.4215 32.0327 57.3275 32.0327C57.2352 32.125 57.2352 32.2173 57.1429 32.2173C57.0506 32.3096 57.0506 32.2173 56.9583 32.3096V32.4019H56.866L56.589 32.5865C56.4967 32.6789 56.4044 32.6789 56.4044 32.6789C56.3121 32.7712 56.4044 32.7712 56.3121 32.7712L56.2198 32.8635H56.1274C56.1274 32.9558 55.7565 33.1404 55.7565 33.2344L54.8301 33.8822C54.7378 33.8822 54.6455 33.9745 54.6455 33.9745C54.5839 34.0361 54.5224 34.0976 54.4609 34.1592L54.1839 34.3438C53.9993 34.4361 53.907 34.6207 53.7207 34.6207L53.6284 34.713C53.6284 34.8054 53.4438 34.8977 53.3515 34.8977L53.2591 34.99L52.8882 35.2669C52.7036 35.3592 52.5173 35.5439 52.425 35.6378C52.3327 35.7301 52.3327 35.6378 52.2404 35.7301C52.2404 35.7301 52.1481 35.8224 52.0558 35.9148L51.8711 36.0071H51.7788L51.6865 36.0994L54.7411 34.4328C54.9257 34.3405 55.2043 34.1559 55.3889 34.0619C55.4813 33.9696 55.3889 33.9696 55.4813 34.0619C55.5736 33.9696 55.4813 33.9696 55.5736 33.8773L56.8692 33.1371C56.9616 33.1371 57.1462 33.0448 57.2402 32.9525L57.7957 32.5816C57.8572 32.5816 57.9188 32.5508 57.9803 32.4893H58.1649C58.3496 32.3046 59.6469 31.6568 60.0161 31.3782L61.3118 30.6381L61.3052 30.6414Z" stroke="white" stroke-width="0.46" stroke-miterlimit="2.61"/>
<path fill-rule="evenodd" clip-rule="evenodd" d="M61.3077 30.6248C61.2549 30.5457 61.2022 30.4666 61.1494 30.3627C61.0703 30.2836 61.0192 30.2045 60.9664 30.127L60.8082 29.9176L60.7818 29.8913L60.6499 29.6819C60.4406 29.7874 60.256 29.9704 60.0466 30.1023C59.89 30.2341 59.7581 30.3644 59.5751 30.4699L59.3922 30.5754C59.2603 30.7056 59.0773 30.8111 58.9191 30.9166L58.8399 30.9694V30.9957H58.8136C58.8136 30.9957 58.7872 31.0221 58.7608 31.0221C58.7608 31.0485 58.7344 31.0749 58.7344 31.0749L58.5515 31.1804C58.5251 31.2067 58.4987 31.2331 58.4723 31.2595C58.3668 31.3386 58.446 31.2859 58.3668 31.3122C58.2877 31.3386 58.3405 31.3122 58.3141 31.3386C58.2102 31.4952 57.9728 31.5743 57.8426 31.7062C57.7371 31.7853 57.7371 31.759 57.6596 31.7853C57.6596 31.8908 57.4223 32.0211 57.3184 32.0738C57.2393 32.1266 57.1882 32.1793 57.1091 32.2321C57.0563 32.2848 57.0563 32.2584 57.0036 32.2848C56.9772 32.3112 56.9772 32.3376 56.9244 32.3639C56.8981 32.3639 56.8717 32.3903 56.8717 32.3903L56.5568 32.626C56.5041 32.6524 56.4513 32.6524 56.3986 32.7052C56.3458 32.7579 56.425 32.7315 56.3458 32.7843C56.2156 32.8634 56.2667 32.7579 56.1876 32.8634L56.1612 32.8898C56.1085 32.9689 55.7936 33.1783 55.7145 33.231L54.8227 33.8607C54.7435 33.9135 54.6908 33.991 54.6133 34.019C54.5078 34.0454 54.5342 34.0717 54.4551 34.1492L54.1402 34.3586C54.0083 34.4377 53.8781 34.5943 53.7462 34.6471L53.6424 34.6998C53.5896 34.7789 53.4577 34.8828 53.3539 34.9092C53.2748 34.9619 53.3275 34.9355 53.2237 35.0147L52.8561 35.2768C52.6995 35.4086 52.5148 35.5141 52.3846 35.6444C52.3055 35.6971 52.3582 35.6707 52.2791 35.7235C52.2 35.7762 52.1208 35.8026 52.0697 35.8817L51.834 36.0136C51.8076 36.0136 51.834 35.9872 51.8076 36.0136L51.7285 36.1438L54.7205 34.4113C54.9034 34.3058 55.1672 34.1228 55.3502 34.0437C55.4557 34.0173 55.3502 34.0173 55.4804 34.0437C55.5331 33.9382 55.454 33.991 55.6123 33.9135L56.8717 33.1783C57.0036 33.0992 57.1091 33.0481 57.2657 32.9689L57.8162 32.6277C57.8954 32.6013 57.9218 32.5486 58.0009 32.5222L58.1311 32.4694C58.3141 32.2865 59.6263 31.6304 59.9939 31.3666L61.306 30.6314L61.3077 30.6248Z" fill="#2E3191"/>
<path d="M17.9519 24.5783C17.675 24.6706 17.4887 24.6707 17.2118 24.763H16.7486C16.2854 24.8553 15.5452 25.0399 14.8974 25.0399L13.4154 25.2245C13.4154 25.2245 13.6 25.3168 13.6923 25.3168L13.7847 25.4092C13.877 25.5938 14.3402 25.7801 14.5248 25.8724L14.988 26.1493C15.0803 26.2416 15.0803 26.3339 15.1727 26.3339L15.8205 26.7048C15.9128 26.7048 15.9128 26.7972 16.0051 26.7972C16.0667 26.8587 16.1282 26.8895 16.1897 26.8895L17.9486 28.0928C18.1333 28.2775 18.5965 27.9082 18.8751 27.7219L19.246 27.445C19.3075 27.445 19.3691 27.4142 19.4306 27.3527C19.6152 27.3527 19.8938 27.2604 20.1708 27.3527C20.4477 27.3527 20.4477 27.445 20.3554 27.5373C20.0784 27.7219 19.8922 28.0928 19.6152 28.2775V28.3698L19.3383 28.6467C19.246 28.739 19.0614 28.9236 18.9674 29.0176L19.152 29.2946C19.2443 29.3869 19.7075 29.7578 19.5229 29.7578C19.4306 29.7578 19.4306 29.6655 19.4306 29.6655H19.246C19.0614 29.4808 18.7828 29.4808 18.5058 29.3885C18.3212 29.2962 17.858 29.2039 17.6734 29.0176H17.4887L16.8409 28.7407C16.7486 28.6484 16.6563 28.6484 16.5639 28.556L15.8238 28.1851C15.6392 28.0928 15.176 27.9082 14.8974 27.7219L12.9538 26.7955V26.9801L13.1385 27.1648C13.1385 27.2571 13.2308 27.3494 13.2308 27.3494L13.6017 27.9049C13.6017 27.9049 13.694 27.9972 13.694 28.0895L14.3418 29.016L14.5265 29.4792C14.5265 29.6638 13.7863 29.4792 13.694 29.4792L13.5094 29.3869C13.4171 29.3869 13.1385 29.2022 13.0462 29.016L12.7692 28.739L12.3983 28.2758V28.1835H12.306C12.306 28.0912 12.2137 27.9989 12.1214 27.9066C12.1214 27.8142 12.0291 27.9066 12.0291 27.8142C12.0291 27.7219 11.9367 27.6296 11.8444 27.5373C11.7521 27.445 11.6598 27.2604 11.5675 27.1664H11.4752C11.4752 27.0741 11.3829 27.0741 11.3829 26.9818L11.012 26.5186L10.9196 26.3339H10.8273V26.2416H10.735C10.735 26.1493 10.6427 26.1493 10.6427 26.1493L10.5504 26.057C10.5504 25.8724 10.4581 25.8724 10.4581 25.8724H10.3658C10.3658 25.7801 10.4581 25.7801 10.3658 25.6877C10.2735 25.5954 10.2735 25.6877 10.2735 25.5954C10.2119 25.5339 10.0883 25.4723 9.90255 25.4108L8.14366 24.3921L8.05134 24.2997C7.86672 24.2074 7.7744 24.1151 7.58813 23.9288L7.49581 23.8365C7.4035 23.7442 7.31119 23.7442 7.31119 23.6519C7.12656 23.375 7.21888 23.6519 7.12656 23.375C7.03425 23.2827 6.10782 22.1716 7.31119 22.1716C7.68209 22.1716 7.95903 22.2639 8.32993 22.3562L9.07009 22.6332C9.13163 22.6947 9.19317 22.7255 9.25471 22.7255L9.62561 22.9101H9.71793C9.71793 23.0024 9.71793 22.9101 9.81024 23.0024L10.0872 23.187C10.2718 23.187 10.9196 23.6503 11.0136 23.7426C11.2906 23.8349 11.5691 23.7426 11.8461 23.7426C12.0307 23.7426 12.0307 23.8349 12.217 23.8349H14.6237C14.716 23.8349 14.8083 23.9272 14.9946 23.9272H16.5689L17.1244 24.0195C17.2167 24.0195 17.1244 24.0195 17.2167 24.1118C17.4014 24.1118 17.5876 24.2041 17.7723 24.2965C17.8646 24.3888 17.9569 24.4811 17.9569 24.5734L17.9519 24.5783Z" stroke="white" stroke-width="0.46" stroke-miterlimit="2.61"/>
<path fill-rule="evenodd" clip-rule="evenodd" d="M17.9466 24.5635C17.6318 24.6426 17.4999 24.6937 17.185 24.7465L16.7647 24.7992C16.3179 24.8256 15.5053 24.9822 14.9283 25.0086L13.4068 25.1668C13.4595 25.2196 13.6161 25.3251 13.6953 25.3498L13.748 25.3762C13.9063 25.5592 14.2986 25.7438 14.5096 25.9004L15.0074 26.1889C15.0865 26.2416 15.1129 26.2944 15.1904 26.3471L15.7937 26.7147C15.8992 26.7411 15.8729 26.7675 15.9784 26.8202C16.0575 26.8994 16.0575 26.873 16.1613 26.9241L17.9713 28.1307C18.1807 28.2626 18.5483 27.9214 18.8368 27.7368L19.2571 27.4747C19.3099 27.4219 19.3363 27.3955 19.4154 27.3692C19.6528 27.3164 19.9132 27.2389 20.2033 27.29C20.4127 27.3164 20.4654 27.3955 20.3599 27.4994C20.1242 27.7087 19.8621 28.05 19.6511 28.2873L19.572 28.3665V28.3929L19.3626 28.6022C19.2324 28.7605 19.0742 28.8907 18.995 29.0489L19.178 29.2583C19.2571 29.3902 19.7022 29.7561 19.5192 29.705C19.4401 29.705 19.4665 29.6786 19.4137 29.6523L19.2308 29.6259C19.0214 29.494 18.7329 29.4413 18.4955 29.3638C18.2862 29.2583 17.8131 29.1544 17.6301 29.0489C17.5949 29.0313 17.5515 29.0138 17.4999 28.9962L16.8174 28.6813C16.7383 28.6286 16.6592 28.6022 16.5817 28.5495L15.8201 28.2082C15.6108 28.0516 15.1904 27.867 14.9283 27.7368L12.96 26.7922C12.9073 26.9224 12.9864 26.9505 12.9864 26.9505L13.1166 27.1334L13.143 27.1862C13.1694 27.2389 13.2221 27.3164 13.2485 27.3692L13.5898 27.867C13.6161 27.9197 13.6689 27.9725 13.6953 28.0516L14.2986 28.9698C14.3513 29.0489 14.2722 28.9434 14.325 29.0226L14.4832 29.4429C14.4832 29.6275 13.748 29.522 13.6442 29.4693L13.4859 29.4165C13.3804 29.3902 13.1447 29.1544 13.0128 29.0226C12.9073 28.9171 12.8545 28.7868 12.7507 28.6813L12.4095 28.261C12.3919 28.2434 12.3743 28.2258 12.3567 28.2082C12.3567 28.1906 12.3479 28.1818 12.3303 28.1818C12.2512 28.0763 12.1721 27.9461 12.0946 27.867C12.0682 27.8406 12.0419 27.867 12.0419 27.8142C11.9891 27.7104 11.8836 27.6049 11.8325 27.4994C11.727 27.3939 11.6495 27.2637 11.5177 27.1845L11.4913 27.1582V27.1318C11.4385 27.0263 11.4122 27.0527 11.3594 26.9488L10.9918 26.5021H10.9654L10.8599 26.3438L10.8072 26.2911L10.7808 26.2383L10.7544 26.212C10.7017 26.1592 10.6753 26.1856 10.6753 26.1328L10.5714 26.0026C10.5187 25.8971 10.4396 25.8443 10.4132 25.8196H10.3868C10.3341 25.7932 10.4132 25.7669 10.3077 25.6614C10.2549 25.6086 10.2813 25.6614 10.2549 25.6086C10.1494 25.4504 10.1247 25.4767 9.91371 25.3729L8.15481 24.3492H8.12843L8.04931 24.2701C7.89106 24.1646 7.73445 24.0607 7.60258 23.9025L7.47235 23.7722C7.39322 23.7195 7.3141 23.6931 7.28772 23.614L7.26135 23.5876C7.13112 23.3783 7.18222 23.5876 7.07837 23.3783C7.02562 23.248 6.10743 22.1716 7.28772 22.1716C7.6817 22.1716 7.97018 22.2771 8.31141 22.381L9.073 22.6431C9.12575 22.6694 9.15212 22.6958 9.20322 22.7222L9.62358 22.8804H9.64996L9.67633 22.9068V22.9332C9.72908 22.9859 9.67633 22.9332 9.75546 22.9596L10.0703 23.1425C10.2269 23.2217 10.883 23.6684 11.0412 23.7195C11.277 23.7722 11.5918 23.7459 11.8028 23.7459C11.9858 23.7459 12.0386 23.7722 12.1968 23.7722C12.9848 23.7722 13.7975 23.8514 14.5854 23.8514C14.7437 23.8514 14.7948 23.8777 14.9794 23.8777C15.5036 23.8777 16.0558 23.9041 16.58 23.9305L17.1043 24.0096C17.157 24.0096 17.1043 24.0096 17.1834 24.0624C17.3927 24.1415 17.5774 24.2206 17.7603 24.3245C17.8395 24.4036 17.9169 24.4547 17.9433 24.5602" fill="#2E3191"/>
<path d="M16.2953 29.6885C18.1465 31.1705 22.2198 34.4097 24.5343 35.6131C24.6266 35.6131 24.6266 35.7054 24.8112 35.7977C24.9035 35.89 25.0881 36.0746 25.2744 36.0746C25.2129 36.1362 25.0585 36.1054 24.8112 35.9823V35.89H24.7189C24.6266 35.7977 19.5345 32.8354 19.3499 32.8354C18.1465 32.1876 16.9431 31.3535 15.6475 30.6133L16.2953 29.6869V29.6885Z" stroke="white" stroke-width="0.46" stroke-miterlimit="2.61"/>
<path fill-rule="evenodd" clip-rule="evenodd" d="M16.2935 29.6803C18.1562 31.1491 22.223 34.4031 24.5061 35.585C24.6116 35.6378 24.6643 35.7153 24.7945 35.7944C24.9264 35.8735 25.083 36.0565 25.2413 36.0829C25.1621 36.162 25.2149 36.1356 24.8473 35.9246L24.8209 35.8983L24.7154 35.8455H24.689C24.5835 35.7664 19.4931 32.8008 19.3612 32.7761C18.1018 32.1464 16.9215 31.332 15.6357 30.6249L16.2918 29.6803H16.2935Z" fill="#2E3191"/>
<path d="M21.073 30.6414C21.1653 30.5491 21.1653 30.4567 21.2576 30.3644C21.3499 30.2721 21.3499 30.1798 21.4423 30.1798L21.5346 29.9029H21.6269L21.7192 29.7182C21.9038 29.8105 22.0901 29.9952 22.367 30.0891C22.4593 30.2738 22.644 30.3661 22.8302 30.46L23.0149 30.5523C23.1072 30.737 23.2918 30.8293 23.4781 30.9232L23.5704 31.0156H23.6627V31.1079L23.8473 31.2002L23.9397 31.2925C24.032 31.3848 23.9397 31.2925 24.032 31.2925C24.1243 31.3848 24.032 31.2925 24.032 31.3848C24.1243 31.4771 24.4029 31.5694 24.4952 31.7557H24.6798C24.6798 31.9403 24.9568 32.0327 25.0507 32.0327C25.143 32.125 25.143 32.2173 25.2353 32.2173C25.3277 32.3096 25.3277 32.2173 25.3277 32.3096C25.3892 32.3096 25.42 32.3404 25.42 32.4019H25.5123L25.7892 32.5865C25.8815 32.6789 25.9738 32.6789 25.9738 32.6789C26.0662 32.7712 25.9738 32.7712 26.0662 32.7712L26.1585 32.8635H26.2508C26.2508 32.9558 26.6217 33.1404 26.6217 33.2344L27.5481 33.8822C27.6404 33.8822 27.7327 33.9745 27.7327 33.9745C27.7943 34.0361 27.8558 34.0976 27.9174 34.1592L28.1943 34.3438C28.3789 34.4361 28.4713 34.6207 28.6575 34.6207L28.7498 34.713C28.7498 34.8054 28.9345 34.8977 29.0268 34.8977L29.1191 34.99L29.49 35.2669C29.6746 35.3592 29.8609 35.5439 29.9532 35.6378C30.0455 35.7301 30.0455 35.6378 30.0455 35.7301C30.1378 35.7301 30.2301 35.8224 30.3225 35.9148L30.5071 36.0071H30.5994L30.6917 36.0994L27.6371 34.4328C27.4525 34.3405 27.1739 34.1559 26.9893 34.0619C26.897 33.9696 26.9893 33.9696 26.897 34.0619C26.8047 33.9696 26.897 33.9696 26.8047 33.8773L25.509 33.1371C25.3244 33.1371 25.232 33.0448 25.1381 32.9525L24.5826 32.5816C24.521 32.5816 24.4595 32.5508 24.3979 32.4893H24.2133C24.0287 32.3046 22.7313 31.6568 22.3621 31.3782L21.0664 30.6381L21.073 30.6414Z" stroke="white" stroke-width="0.46" stroke-miterlimit="2.61"/>
<path fill-rule="evenodd" clip-rule="evenodd" d="M21.0684 30.6249C21.1211 30.5457 21.1739 30.4666 21.2266 30.3628C21.3057 30.2836 21.3568 30.2045 21.4096 30.127L21.5678 29.9177L21.5942 29.8913L21.7261 29.6819C21.9354 29.7874 22.1201 29.9704 22.3294 30.1023C22.486 30.2342 22.6179 30.3644 22.8009 30.4699L22.9839 30.5754C23.1157 30.7056 23.2987 30.8111 23.457 30.9166L23.5361 30.9694V30.9958H23.5625C23.5625 30.9958 23.5888 31.0221 23.6152 31.0221C23.6152 31.0485 23.6416 31.0749 23.6416 31.0749L23.8246 31.1804C23.8509 31.2068 23.8773 31.2331 23.9037 31.2595C24.0092 31.3386 23.9301 31.2859 24.0092 31.3123C24.0883 31.3386 24.0356 31.3123 24.0619 31.3386C24.1674 31.4952 24.4032 31.5744 24.5334 31.7062C24.6389 31.7854 24.6389 31.759 24.718 31.7854C24.718 31.8909 24.9538 32.0211 25.0593 32.0738C25.1384 32.1266 25.1895 32.1793 25.2686 32.2321C25.3214 32.2848 25.3214 32.2585 25.3741 32.2849C25.4005 32.3112 25.4005 32.3376 25.4532 32.364C25.4796 32.364 25.506 32.3904 25.506 32.3904L25.8208 32.6261C25.8736 32.6525 25.9263 32.6525 25.9791 32.7052C26.0318 32.758 25.9527 32.7316 26.0318 32.7843C26.1621 32.8635 26.111 32.758 26.1901 32.8635L26.2165 32.8898C26.2692 32.969 26.5841 33.1783 26.6632 33.2311L27.555 33.8608C27.6341 33.9135 27.6869 33.991 27.7644 34.019C27.8699 34.0454 27.8435 34.0718 27.9226 34.1492L28.2375 34.3586C28.3677 34.4377 28.4996 34.5943 28.6315 34.6471L28.737 34.6998C28.7897 34.779 28.9199 34.8828 29.0254 34.9092C29.1046 34.9619 29.0518 34.9356 29.1557 35.0147L29.5233 35.2768C29.6815 35.4087 29.8645 35.5142 29.9947 35.6444C30.0738 35.6971 30.0211 35.6708 30.1002 35.7235C30.1793 35.7763 30.2585 35.8026 30.3096 35.8818L30.5453 36.0136C30.5717 36.0136 30.5453 35.9873 30.5717 36.0136L30.6508 36.1439L27.6589 34.4113C27.4759 34.3058 27.2121 34.1229 27.0292 34.0437C26.9237 34.0174 27.0292 34.0174 26.8973 34.0437C26.8445 33.9382 26.9237 33.991 26.7671 33.9135L25.5076 33.1783C25.3774 33.0992 25.2719 33.0481 25.1153 32.969L24.5647 32.6277C24.4856 32.6014 24.4592 32.5486 24.3801 32.5222L24.2499 32.4695C24.0669 32.2865 22.7547 31.6304 22.3871 31.3667L21.075 30.6315L21.0684 30.6249Z" fill="#2E3191"/>
<path fill-rule="evenodd" clip-rule="evenodd" d="M0.642578 13.209H21.024C24.7363 13.209 24.5616 13.3953 27.6854 16.1383C31.3582 19.3626 39.7851 36.739 41.1813 41.2475C42.5792 36.739 51.0061 19.361 54.6788 16.1383C57.8026 13.3969 57.6279 13.209 61.3402 13.209H81.7217C78.588 16.1844 76.6115 18.0389 75.1262 19.1978C70.3358 22.9299 63.4107 19.9033 57.2372 22.864C53.9469 24.4415 52.4534 27.1779 50.073 31.3716C46.491 37.6835 41.3824 46.4088 41.1829 46.75C40.9835 46.4088 35.8766 37.6852 32.2928 31.3716C29.9125 27.1779 28.4173 24.4415 25.1287 22.864C18.9552 19.9033 12.0301 22.9299 7.23968 19.1978C5.75278 18.0406 3.77628 16.1844 0.644227 13.209" fill="#EC1C24"/>
<path d="M228.393 34.385C228.521 34.394 228.641 34.412 228.754 34.4329C228.868 34.4538 228.976 34.4748 229.083 34.4957C229.104 34.4957 229.125 34.4957 229.146 34.5047C229.167 34.5106 229.188 34.5166 229.209 34.5286C229.296 34.5495 229.379 34.5645 229.457 34.5764C229.535 34.5884 229.628 34.5914 229.723 34.5914C229.84 34.5914 229.974 34.5734 230.124 34.5346C230.273 34.4957 230.438 34.4419 230.62 34.3641C230.417 34.6751 230.279 34.9682 230.202 35.2463C230.127 35.5244 230.067 35.7486 230.025 35.9191C230.016 35.94 230.007 35.958 230.001 35.9759C229.995 35.9908 229.992 36.0058 229.992 36.0148C229.852 35.8653 229.72 35.7307 229.592 35.6141C229.463 35.4974 229.34 35.3988 229.224 35.324C229.032 35.2074 228.838 35.1237 228.647 35.0758C228.452 35.028 228.234 35.004 227.989 35.004C227.57 35.004 227.289 35.0818 227.14 35.2373C226.99 35.3928 226.915 35.5722 226.915 35.7755C226.915 35.946 226.999 36.0925 227.164 36.2181C227.331 36.3407 227.54 36.4573 227.797 36.562C227.959 36.6248 228.123 36.6936 228.294 36.7624C228.464 36.8311 228.641 36.9029 228.823 36.9777C229.296 37.193 229.729 37.4711 230.124 37.812C230.519 38.1528 230.719 38.6403 230.719 39.2712C230.719 40.0308 230.507 40.5541 230.085 40.8381C229.66 41.1222 229.2 41.2897 228.698 41.3435C228.569 41.3555 228.437 41.3615 228.303 41.3674C228.168 41.3734 228.037 41.3764 227.908 41.3764C227.095 41.3764 226.574 41.2299 226.35 40.9338C226.126 40.6378 226.009 39.8932 225.997 38.6941C226.03 38.7898 226.069 38.8885 226.117 38.9901C226.165 39.0918 226.216 39.1905 226.269 39.2862C226.494 39.6809 226.805 40.0457 227.199 40.3776C227.597 40.7096 228.079 40.877 228.644 40.877C229.029 40.877 229.311 40.7933 229.487 40.6288C229.663 40.4614 229.753 40.2132 229.753 39.8812C229.753 39.657 229.657 39.4746 229.463 39.337C229.272 39.1965 229.035 39.0649 228.757 38.9363C228.629 38.8825 228.494 38.8227 228.348 38.7599C228.204 38.6971 228.061 38.6313 227.923 38.5655C227.463 38.3532 227.044 38.0721 226.664 37.7222C226.284 37.3754 226.093 36.858 226.093 36.1733C226.093 35.4347 226.332 34.9532 226.808 34.7289C227.283 34.5047 227.812 34.391 228.39 34.391V34.3761L228.393 34.385ZM222.277 35.4436C221.88 35.4436 221.581 35.6739 221.377 36.1344C221.174 36.5949 221.072 37.1092 221.072 37.6744C221.072 37.9196 221.09 38.1678 221.129 38.413C221.165 38.6582 221.222 38.8885 221.297 39.1038C221.383 39.017 221.515 38.8944 221.691 38.736C221.868 38.5745 222.053 38.3951 222.244 38.1887C222.331 38.114 222.412 38.0302 222.493 37.9405C222.573 37.8508 222.645 37.7611 222.711 37.6744C222.872 37.483 223.004 37.2946 223.112 37.1122C223.219 36.9298 223.273 36.7683 223.273 36.6308C223.273 36.568 223.267 36.4872 223.258 36.3916C223.246 36.2959 223.225 36.1972 223.192 36.1015C223.139 35.931 223.043 35.7785 222.905 35.644C222.765 35.5094 222.558 35.4436 222.28 35.4436H222.277ZM219.565 38.5266C219.565 37.2647 219.927 36.266 220.648 35.5333C221.371 34.8007 222.218 34.4329 223.192 34.4329C223.387 34.4329 223.56 34.4478 223.722 34.4807C223.883 34.5136 224.036 34.5704 224.188 34.6572C224.359 34.7439 224.535 34.8605 224.717 35.01C224.9 35.1595 225.109 35.3509 225.342 35.5872L221.44 39.4716C221.569 39.6958 221.718 39.8663 221.889 39.9769C222.059 40.0906 222.229 40.1713 222.403 40.2251C222.564 40.267 222.723 40.2939 222.878 40.3059C223.034 40.3178 223.174 40.3208 223.303 40.3208C223.366 40.3208 223.429 40.3208 223.488 40.3119C223.548 40.3059 223.608 40.2999 223.674 40.2879C223.856 40.2461 224.033 40.1893 224.203 40.1175C224.374 40.0487 224.535 39.971 224.685 39.8842C224.888 39.7885 225.052 39.6929 225.175 39.6032C225.298 39.5134 225.36 39.4656 225.36 39.4656C224.942 40.1085 224.475 40.5929 223.955 40.9189C223.438 41.2448 222.845 41.4093 222.182 41.4093C221.455 41.4093 220.902 41.2299 220.528 40.871C220.154 40.5122 219.897 40.1145 219.757 39.6749C219.682 39.4716 219.631 39.2712 219.604 39.0739C219.577 38.8765 219.565 38.6971 219.565 38.5356V38.5207V38.5266ZM217.14 34.9323C216.339 34.9412 215.705 35.2253 215.244 35.7815C214.784 36.3377 214.526 36.9478 214.476 37.6116C214.464 37.6535 214.458 37.6953 214.458 37.7402V37.8688C214.458 38.425 214.55 38.8197 214.739 39.0499C214.927 39.2802 215.16 39.3908 215.438 39.3789C215.567 39.3789 215.702 39.3579 215.848 39.3131C215.992 39.2712 216.138 39.2114 216.291 39.1367C216.44 39.0619 216.587 38.9692 216.733 38.8645C216.877 38.7569 217.014 38.6462 217.143 38.5266V34.9323H217.14ZM217.14 43.4098V39.2682C217.056 39.3639 216.856 39.5374 216.545 39.7826C216.234 40.0308 215.902 40.3388 215.549 40.7155C215.142 41.1432 214.772 41.6485 214.434 42.2257C214.096 42.8028 213.928 43.4367 213.928 44.1215C213.928 44.8063 214.075 45.2309 214.371 45.4612C214.667 45.6914 215.017 45.8051 215.424 45.8051C215.959 45.8051 216.377 45.5628 216.682 45.0814C216.987 44.6 217.14 44.0438 217.14 43.4098ZM218.65 34.4688V42.1748C218.65 43.4816 218.258 44.5701 217.478 45.4432C216.697 46.3164 215.836 46.75 214.894 46.75C214.156 46.75 213.656 46.5347 213.393 46.0981C213.13 45.6645 212.989 45.1861 212.968 44.6628V44.4534C212.968 44.1424 213.031 43.7417 213.154 43.2483C213.276 42.7549 213.665 42.124 214.317 41.3525H214.189C213.869 41.3106 213.576 41.0983 213.312 40.7185C213.049 40.3388 212.918 39.7945 212.918 39.0888C212.918 37.9017 213.241 36.9388 213.889 36.2062C214.538 35.4735 215.25 34.9741 216.034 34.705C216.237 34.6422 216.443 34.5914 216.653 34.5525C216.862 34.5166 217.062 34.4957 217.254 34.4957L218.65 34.4628V34.4688ZM209.724 34.9353C208.923 34.9442 208.289 35.2283 207.828 35.7845C207.368 36.3407 207.11 36.9507 207.057 37.6146C207.045 37.6565 207.042 37.6983 207.042 37.7432V37.8718C207.042 38.428 207.134 38.8227 207.323 39.0529C207.511 39.2832 207.744 39.3938 208.022 39.3819C208.151 39.3819 208.289 39.3609 208.432 39.3161C208.576 39.2742 208.725 39.2144 208.875 39.1397C209.024 39.0649 209.171 38.9722 209.317 38.8675C209.461 38.7599 209.598 38.6492 209.727 38.5296V34.9353H209.724ZM209.838 34.4867H211.234V40.4255C211.246 40.5122 211.27 40.569 211.306 40.6019C211.342 40.6348 211.39 40.6438 211.443 40.6348C211.551 40.6348 211.689 40.59 211.862 40.4973C212.033 40.4075 212.227 40.3029 212.439 40.1833C212.406 40.2461 212.37 40.3148 212.326 40.3836C212.284 40.4524 212.236 40.5212 212.182 40.584C212.053 40.7455 211.898 40.898 211.716 41.0505C211.533 41.2 211.348 41.3076 211.153 41.3704C211.088 41.3914 211.028 41.4063 210.968 41.4183C210.908 41.4302 210.854 41.4332 210.8 41.4332C210.759 41.4332 210.687 41.4183 210.591 41.3854C210.495 41.3525 210.394 41.2987 210.286 41.2239C210.146 41.1162 210.02 40.9757 209.9 40.7993C209.784 40.6228 209.724 40.4046 209.724 40.1504V39.2682C209.637 39.3639 209.5 39.5134 209.305 39.7108C209.114 39.9082 208.899 40.1145 208.662 40.3298C208.576 40.4165 208.492 40.4973 208.405 40.572C208.322 40.6468 208.229 40.7155 208.133 40.7813C207.909 40.9757 207.685 41.1312 207.466 41.2568C207.245 41.3794 207.057 41.4422 206.895 41.4422H206.832C206.811 41.4422 206.79 41.4362 206.77 41.4272C206.45 41.3854 206.157 41.1611 205.893 40.7604C205.63 40.3597 205.499 39.8065 205.499 39.0978C205.499 37.5996 205.914 36.4603 206.743 35.6769C207.571 34.8964 208.603 34.5047 209.832 34.5047V34.4897L209.838 34.4867ZM202.389 35.4018C202.422 35.3479 202.469 35.2672 202.532 35.1595C202.595 35.0519 202.673 34.9353 202.757 34.8067C202.873 34.6452 203.011 34.4927 203.166 34.3492C203.322 34.2056 203.486 34.1339 203.657 34.1339C203.699 34.1339 203.782 34.1787 203.905 34.2714C204.027 34.3611 204.153 34.4837 204.282 34.6332C204.452 34.8366 204.608 35.0788 204.748 35.3569C204.889 35.635 204.957 35.934 204.957 36.257C204.957 36.5142 204.778 36.9627 204.419 37.6086C204.06 38.2515 203.663 38.9572 203.223 39.7317C203.136 39.8812 203.053 40.0308 202.975 40.1833C202.894 40.3328 202.81 40.4883 202.727 40.6498C202.395 41.2717 202.105 41.8848 201.859 42.4888C201.614 43.0958 201.492 43.6191 201.492 44.0557V44.1604C201.492 44.1993 201.498 44.2322 201.507 44.265C201.539 44.7256 201.701 45.1472 201.988 45.527C202.275 45.9067 202.667 46.0951 203.16 46.0951C203.546 46.0951 203.845 46.0054 204.06 45.823C204.276 45.6406 204.479 45.3565 204.67 44.9708C204.691 44.9169 204.715 44.8571 204.742 44.7943C204.769 44.7315 204.799 44.6657 204.829 44.6C204.829 45.2638 204.667 45.7453 204.347 46.0443C204.027 46.3433 203.669 46.5437 203.271 46.6394C203.121 46.6812 202.972 46.7081 202.819 46.7201C202.67 46.7321 202.532 46.735 202.401 46.735C201.62 46.735 201.022 46.6035 200.612 46.3403C200.203 46.0772 199.993 45.5838 199.993 44.8541C199.993 44.6717 200.02 44.4833 200.074 44.283C200.128 44.0856 200.197 43.8913 200.284 43.6969C200.379 43.4726 200.493 43.2513 200.621 43.03C200.75 42.8118 200.879 42.6054 201.007 42.4111C201.19 42.133 201.366 41.8878 201.537 41.6724C201.707 41.4571 201.836 41.2987 201.922 41.191C201.922 41.191 201.806 40.9219 201.569 40.3776C201.333 39.8394 201.055 39.2383 200.735 38.5864C200.681 38.4788 200.624 38.3681 200.568 38.2455C200.508 38.1289 200.451 38.0153 200.397 37.9076C200.14 37.4142 199.892 36.9777 199.65 36.6039C199.407 36.2301 199.219 36.0237 199.081 35.9909C199.04 35.9819 198.998 35.9759 198.962 35.9759H198.842C198.788 35.9759 198.732 35.9759 198.675 35.9849C198.615 35.9908 198.555 36.0028 198.489 36.0237C198.349 36.0447 198.217 36.0865 198.089 36.1404C197.96 36.1942 197.843 36.248 197.736 36.3018C197.64 36.3437 197.559 36.3856 197.494 36.4304C197.431 36.4723 197.371 36.5112 197.317 36.5441C197.392 36.4274 197.488 36.2869 197.598 36.1254C197.712 35.9609 197.837 35.7965 197.975 35.626C198.116 35.4556 198.265 35.2881 198.424 35.1296C198.582 34.9712 198.744 34.8276 198.905 34.708C199.034 34.6123 199.165 34.5346 199.3 34.4748C199.434 34.415 199.56 34.388 199.677 34.388C200.041 34.388 200.397 34.6841 200.744 35.2792C201.091 35.8742 201.432 36.5291 201.764 37.2468C201.827 37.3873 201.892 37.5219 201.955 37.6565C202.018 37.791 202.084 37.9256 202.15 38.0661C202.29 38.3353 202.422 38.5894 202.55 38.8376C202.679 39.0828 202.813 39.2981 202.951 39.4805C202.951 39.4805 202.987 39.4118 203.065 39.2712C203.139 39.1307 203.226 38.9572 203.322 38.7419C203.376 38.6014 203.429 38.4579 203.483 38.3083C203.537 38.1588 203.579 38.0093 203.612 37.8598C203.645 37.7641 203.666 37.6654 203.678 37.5697C203.687 37.474 203.693 37.3754 203.693 37.2797C203.693 36.8311 203.579 36.4543 203.349 36.1463C203.118 35.8413 202.801 35.5991 202.392 35.4167V35.4018H202.389ZM193.735 35.1595C193.262 35.1715 192.889 35.3659 192.61 35.7456C192.332 36.1254 192.192 36.5979 192.192 37.166C192.192 37.3365 192.198 37.5727 192.207 37.8718C192.216 38.1708 192.255 38.4818 192.32 38.8017C192.416 39.2742 192.595 39.7078 192.859 40.1025C193.122 40.4973 193.531 40.6976 194.088 40.6976C194.548 40.6976 194.922 40.5032 195.212 40.1115C195.499 39.7198 195.646 39.2324 195.646 38.6433C195.646 38.4489 195.637 38.2455 195.622 38.0332C195.607 37.8179 195.577 37.5937 195.532 37.3574C195.436 36.8132 195.248 36.3108 194.97 35.8563C194.692 35.4018 194.279 35.1745 193.735 35.1745V35.1566V35.1595ZM190.78 38.099C190.78 37.1451 191.133 36.2959 191.839 35.5483C192.545 34.7977 193.358 34.4239 194.279 34.4239C195.2 34.4239 195.897 34.7499 196.375 35.4047C196.851 36.0566 197.09 36.8281 197.09 37.7163C197.09 38.7001 196.722 39.5703 195.989 40.3238C195.257 41.0774 194.446 41.4571 193.558 41.4571C192.67 41.4571 191.997 41.1342 191.513 40.4853C191.026 39.8394 190.783 39.0499 190.783 38.117V38.102L190.78 38.099ZM174.982 35.339C174.982 33.9873 175.416 32.9467 176.283 32.2231C177.15 31.4964 178.107 31.0688 179.157 30.9402C179.265 30.9312 179.372 30.9223 179.486 30.9163C179.6 30.9103 179.707 30.9073 179.815 30.9073L183.843 30.8924C183.759 30.9881 183.672 31.0867 183.586 31.1884C183.502 31.2901 183.415 31.4007 183.328 31.5173C182.943 32.0646 182.59 32.8151 182.27 33.7661C181.95 34.723 181.788 35.8712 181.788 37.2229V37.4471C181.809 39.0141 182.067 40.4434 182.56 41.7382C183.053 43.036 183.744 43.6849 184.629 43.6849C184.704 43.6849 184.898 43.5862 185.206 43.3889C185.517 43.1915 185.849 42.8775 186.202 42.4499C186.597 41.9476 186.965 41.2837 187.303 40.4584C187.641 39.636 187.808 38.6014 187.808 37.3604V37.1601C187.808 37.0913 187.802 37.0195 187.793 36.9418C187.73 36.0746 187.482 35.2792 187.054 34.5585C186.627 33.8348 186.092 33.476 185.449 33.476C185.428 33.476 185.407 33.476 185.383 33.485C185.362 33.4909 185.341 33.4939 185.32 33.4939C185.203 33.5358 185.084 33.6165 184.967 33.7362C184.851 33.8558 184.722 33.9933 184.581 34.1548C184.602 34.0382 184.629 33.9126 184.662 33.79C184.695 33.6674 184.737 33.5478 184.791 33.4252C184.931 33.0723 185.117 32.7284 185.353 32.3995C185.589 32.0705 185.828 31.8224 186.077 31.6489C186.184 31.5861 186.286 31.5353 186.382 31.4964C186.477 31.4575 186.57 31.4396 186.654 31.4396C186.824 31.4396 187.039 31.5203 187.297 31.6788C187.554 31.8403 187.826 32.0646 188.116 32.3546C188.556 32.8062 188.956 33.3923 189.321 34.1159C189.686 34.8426 189.865 35.647 189.865 36.5351C189.865 36.9567 189.8 37.4142 189.665 37.9196C189.53 38.422 189.342 38.9363 189.094 39.4626C188.624 40.4913 187.99 41.4542 187.198 42.3483C186.405 43.2454 185.583 43.8135 184.725 44.0617C184.596 44.0946 184.471 44.1215 184.348 44.1424C184.226 44.1634 184.1 44.1753 183.971 44.1753C182.581 44.1753 181.564 43.6251 180.93 42.5187C180.293 41.4153 179.922 40.1982 179.815 38.8675C179.794 38.7061 179.779 38.5446 179.773 38.3771C179.767 38.2097 179.764 38.0482 179.764 37.8867C179.764 36.568 179.988 35.4018 180.44 34.3821C180.891 33.3654 181.388 32.4742 181.932 31.7147C181.965 31.6609 182.001 31.6041 182.046 31.5472C182.087 31.4874 182.132 31.4336 182.174 31.3798L180.021 31.3618C178.888 31.3738 177.898 31.6728 177.058 32.2589C176.217 32.845 175.799 33.6464 175.799 34.6691C175.799 35.022 175.859 35.4317 175.975 35.8982C176.092 36.3646 176.328 36.8371 176.681 37.3186C176.905 37.6295 177.183 37.9346 177.515 38.2336C177.847 38.5326 178.254 38.8227 178.735 39.1008C177.656 39.047 176.759 38.6791 176.047 38.0003C175.335 37.3215 174.979 36.4394 174.979 35.3599V35.3449L174.982 35.339Z" fill="#2E3191"/>
<path d="M229.737 9.74786C230.045 9.77477 230.335 9.81065 230.604 9.86448C230.873 9.9183 231.14 9.96615 231.397 10.02C231.448 10.02 231.498 10.026 231.552 10.0409C231.603 10.0529 231.654 10.0738 231.708 10.0977C231.914 10.1486 232.111 10.1874 232.306 10.2143C232.5 10.2413 232.712 10.2532 232.943 10.2532C233.227 10.2532 233.547 10.2084 233.909 10.1187C234.267 10.0289 234.668 9.89139 235.105 9.71197C234.614 10.4595 234.282 11.1653 234.1 11.8351C233.921 12.5049 233.777 13.0462 233.675 13.4558C233.648 13.5067 233.63 13.5515 233.618 13.5904C233.607 13.6293 233.601 13.6622 233.601 13.6861C233.266 13.3243 232.946 13.0043 232.635 12.7202C232.327 12.4361 232.031 12.2059 231.747 12.0265C231.283 11.7424 230.82 11.545 230.356 11.4284C229.893 11.3118 229.366 11.255 228.774 11.255C227.769 11.255 227.088 11.4404 226.729 11.8142C226.367 12.188 226.188 12.6186 226.188 13.106C226.188 13.5186 226.388 13.8715 226.786 14.1675C227.183 14.4636 227.692 14.7387 228.311 14.9959C228.696 15.1514 229.094 15.3098 229.507 15.4773C229.919 15.6448 230.344 15.8182 230.781 15.9976C231.914 16.5119 232.955 17.1818 233.909 18.0041C234.859 18.8265 235.338 19.9987 235.338 21.5177C235.338 23.3448 234.83 24.6007 233.813 25.2825C232.796 25.9643 231.684 26.371 230.473 26.4996C230.165 26.5265 229.848 26.5445 229.528 26.5564C229.208 26.5684 228.891 26.5773 228.583 26.5773C226.627 26.5773 225.38 26.2245 224.839 25.5158C224.298 24.8071 224.017 23.0129 223.99 20.1302C224.067 20.3605 224.163 20.5997 224.28 20.8449C224.396 21.0901 224.519 21.3263 224.648 21.5596C225.189 22.5105 225.933 23.3867 226.887 24.1851C227.838 24.9835 228.998 25.3812 230.362 25.3812C231.289 25.3812 231.965 25.1809 232.389 24.7832C232.814 24.3854 233.026 23.7844 233.026 22.989C233.026 22.4477 232.796 22.0111 232.333 21.6762C231.869 21.3413 231.304 21.0213 230.634 20.7103C230.326 20.5818 229.997 20.4412 229.65 20.2857C229.303 20.1302 228.963 19.9777 228.628 19.8222C227.521 19.3079 226.51 18.6321 225.598 17.7948C224.686 16.9575 224.229 15.7165 224.229 14.0689C224.229 12.2926 224.8 11.1354 225.945 10.5941C227.091 10.0529 228.359 9.78374 229.749 9.78374V9.74487L229.737 9.74786ZM215.031 12.2956C214.077 12.2956 213.359 12.8488 212.869 13.9552C212.381 15.0616 212.136 16.2966 212.136 17.6602C212.136 18.2523 212.181 18.8444 212.271 19.4365C212.36 20.0286 212.495 20.5818 212.677 21.0961C212.884 20.8898 213.198 20.5937 213.622 20.208C214.047 19.8222 214.492 19.3856 214.953 18.8952C215.159 18.7158 215.357 18.5155 215.551 18.2972C215.745 18.0789 215.919 17.8666 216.071 17.6602C216.457 17.1967 216.78 16.7482 217.037 16.3086C217.294 15.872 217.423 15.4863 217.423 15.1514C217.423 14.9959 217.411 14.8045 217.384 14.5712C217.357 14.341 217.306 14.1077 217.229 13.8775C217.1 13.4648 216.867 13.1 216.535 12.777C216.2 12.4541 215.698 12.2956 215.031 12.2956ZM208.506 19.7086C208.506 16.6734 209.373 14.2722 211.11 12.5079C212.848 10.7466 214.887 9.86448 217.229 9.86448C217.692 9.86448 218.117 9.90335 218.502 9.9811C218.888 10.0588 219.262 10.1994 219.621 10.4057C220.033 10.6121 220.458 10.8931 220.895 11.255C221.331 11.6168 221.834 12.0773 222.399 12.6455L213.018 21.9872C213.326 22.5285 213.688 22.9321 214.098 23.2043C214.51 23.4764 214.92 23.6737 215.333 23.8023C215.718 23.904 216.098 23.9698 216.472 23.9967C216.846 24.0236 217.187 24.0356 217.495 24.0356C217.65 24.0356 217.797 24.0296 217.937 24.0146C218.078 24.0027 218.227 23.9818 218.383 23.9578C218.819 23.8532 219.244 23.7186 219.657 23.5511C220.069 23.3837 220.455 23.1983 220.814 22.992C221.301 22.7617 221.696 22.5344 221.992 22.3161C222.288 22.0979 222.438 21.9872 222.438 21.9872C221.433 23.5302 220.309 24.6964 219.059 25.4799C217.812 26.2663 216.388 26.6581 214.794 26.6581C213.045 26.6581 211.717 26.2275 210.817 25.3633C209.917 24.5021 209.298 23.5422 208.963 22.4866C208.784 21.9992 208.661 21.5147 208.596 21.0393C208.53 20.5638 208.5 20.1332 208.5 19.7445V19.7056L208.506 19.7086ZM192.834 19.7086C192.834 16.7482 193.683 14.3739 195.381 12.5857C197.08 10.7975 199.266 9.90335 201.945 9.90335C202.202 9.90335 202.498 9.93624 202.833 9.99904C203.168 10.0618 203.515 10.1605 203.877 10.2891C204.597 10.5463 205.261 10.932 205.865 11.4464C206.469 11.9607 206.771 12.5797 206.771 13.3003C206.771 13.4289 206.667 13.6293 206.463 13.8984C206.257 14.1675 206.012 14.4576 205.731 14.7656C205.626 14.8673 205.518 14.9779 205.402 15.0945C205.285 15.2112 205.178 15.3218 205.073 15.4235C204.867 15.579 204.681 15.7255 204.514 15.866C204.346 16.0066 204.185 16.1172 204.032 16.195C203.853 15.268 203.434 14.4905 202.776 13.8595C202.121 13.2286 201.419 12.786 200.674 12.5288C200.444 12.4511 200.211 12.3943 199.98 12.3554C199.75 12.3165 199.529 12.2986 199.326 12.2986C198.321 12.2986 197.531 12.8249 196.951 13.8805C196.371 14.9361 196.084 16.1441 196.084 17.5077C196.084 19.592 196.476 21.117 197.262 22.0829C198.049 23.0488 198.916 23.6857 199.867 23.9937C200.175 24.0954 200.492 24.1672 200.812 24.206C201.135 24.2449 201.437 24.2628 201.718 24.2628C201.948 24.2628 202.181 24.2359 202.412 24.1851C202.642 24.1343 202.875 24.0685 203.105 23.9907C203.491 23.8621 203.865 23.7007 204.224 23.5093C204.583 23.3149 204.917 23.1175 205.228 22.9112C205.357 22.8335 205.486 22.7557 205.614 22.681C205.743 22.6032 205.859 22.5255 205.961 22.4507C205.782 22.7079 205.608 22.9591 205.441 23.2043C205.273 23.4495 205.112 23.6737 204.959 23.8801C204.161 24.8848 203.3 25.5965 202.373 26.0241C201.446 26.4488 200.211 26.6611 198.668 26.6611C196.739 26.6611 195.372 26.2305 194.577 25.3663C193.779 24.5051 193.276 23.5452 193.073 22.4896C192.971 22.0022 192.905 21.5177 192.878 21.0423C192.852 20.5668 192.84 20.1362 192.84 19.7475V19.7086H192.834ZM189.167 16.1172V18.2015C189.141 18.4856 189.129 18.7936 189.129 19.1285V22.8335C189.129 23.6558 189.141 24.0804 189.167 24.1073C189.167 24.3914 189.224 24.6037 189.341 24.7443C189.457 24.8848 189.604 24.9566 189.786 24.9566C190.017 24.9566 190.307 24.846 190.654 24.6277C191 24.4094 191.407 24.0924 191.871 23.6827C191.587 24.224 191.273 24.6875 190.926 25.0732C190.579 25.459 190.226 25.7819 189.864 26.0391C189.478 26.2693 189.111 26.4458 188.764 26.5594C188.417 26.676 188.1 26.7328 187.819 26.7328C187.176 26.7328 186.629 26.5265 186.177 26.1138C185.726 25.7012 185.501 25.0583 185.501 24.1851L185.54 15.4623V15.0377C185.54 14.936 185.528 14.8314 185.501 14.7297C185.474 14.4456 185.379 14.1825 185.211 13.9373C185.044 13.6921 184.73 13.5695 184.266 13.5695C184.036 13.5695 183.791 13.6472 183.534 13.7997C183.277 13.9552 183.019 14.1616 182.762 14.4187C182.556 14.6251 182.35 14.8434 182.143 15.0736C181.937 15.3039 181.745 15.5371 181.563 15.7674C181.15 16.3086 180.809 16.802 180.54 17.2535C180.271 17.7051 180.137 17.9413 180.137 17.9682V24.532C180.11 24.5828 180.086 24.6426 180.059 24.7054C180.032 24.7712 180.008 24.828 179.981 24.8788C179.751 25.2915 179.371 25.6653 178.842 25.9972C178.313 26.3321 177.753 26.5504 177.161 26.6521C177.06 26.679 176.955 26.697 176.853 26.7089C176.752 26.7209 176.647 26.7299 176.545 26.7299V13.5665C176.545 13.3871 176.506 13.2376 176.429 13.1359C176.351 13.0342 176.234 12.9804 176.082 12.9804C175.875 12.9804 175.6 13.0641 175.25 13.2316C174.904 13.405 174.458 13.6682 173.92 14.03C174.871 12.7561 175.759 11.7723 176.584 11.0696C177.407 10.3669 178.037 10.014 178.477 10.014C179.326 10.014 179.814 10.5732 179.945 11.6945C180.074 12.8129 180.14 14.0689 180.14 15.4594V16.2697C180.268 16.0634 180.525 15.6657 180.911 15.0736C181.297 14.4815 181.748 13.8625 182.263 13.2196C182.804 12.5498 183.408 11.9128 184.078 11.3088C184.748 10.7048 185.43 10.313 186.123 10.1306C186.252 10.0798 186.374 10.0469 186.491 10.0349C186.608 10.023 186.73 10.014 186.859 10.014C187.914 10.014 188.569 10.3938 188.827 11.1533C189.084 11.9128 189.212 12.8309 189.212 13.9134V15.0317C189.185 15.2112 189.173 15.3936 189.173 15.573V16.1531V16.1142L189.167 16.1172ZM168.244 11.0606C166.315 11.0875 164.796 11.7693 163.69 13.106C162.584 14.4426 161.965 15.9109 161.836 17.5077C161.809 17.6094 161.797 17.7141 161.797 17.8157V18.1237C161.797 19.4604 162.021 20.4083 162.473 20.9615C162.924 21.5147 163.484 21.7779 164.153 21.754C164.461 21.754 164.79 21.7031 165.137 21.5985C165.484 21.4968 165.84 21.3533 166.199 21.1738C166.561 20.9944 166.913 20.7761 167.26 20.519C167.607 20.2618 167.936 19.9927 168.244 19.7086V11.0606ZM168.513 9.9811H171.871V24.2628C171.898 24.4692 171.955 24.6097 172.045 24.6875C172.135 24.7652 172.245 24.7891 172.374 24.7652C172.631 24.7652 172.966 24.6546 173.379 24.4363C173.791 24.218 174.255 23.9668 174.769 23.6827C174.691 23.8382 174.602 23.9967 174.5 24.1642C174.395 24.3316 174.282 24.4931 174.153 24.6456C173.845 25.0314 173.471 25.4051 173.035 25.764C172.598 26.1258 172.147 26.383 171.683 26.5355C171.528 26.5863 171.381 26.6252 171.24 26.6521C171.1 26.679 170.962 26.691 170.834 26.691C170.732 26.691 170.565 26.6521 170.331 26.5744C170.098 26.4966 169.856 26.368 169.599 26.1886C169.264 25.9314 168.956 25.5905 168.672 25.1659C168.388 24.7413 168.247 24.221 168.247 23.602V21.4789C168.041 21.7091 167.706 22.065 167.242 22.5404C166.779 23.0159 166.265 23.5123 165.699 24.0266C165.493 24.2329 165.287 24.4243 165.08 24.6067C164.874 24.7861 164.656 24.9536 164.426 25.1091C163.884 25.5726 163.352 25.9524 162.823 26.2484C162.293 26.5445 161.839 26.691 161.453 26.691H161.298C161.247 26.691 161.196 26.679 161.142 26.6521C160.371 26.5474 159.668 26.0152 159.04 25.0493C158.409 24.0834 158.095 22.7527 158.095 21.0542C158.095 17.4509 159.091 14.7118 161.085 12.8309C163.08 10.953 165.559 10.014 168.516 10.014V9.97512L168.513 9.9811ZM141.029 14.2273C141.185 14.021 141.352 13.7698 141.532 13.4738C141.711 13.1777 141.929 12.8757 142.187 12.5677C142.393 12.3375 142.593 12.1102 142.785 11.8919C142.979 11.6736 143.188 11.4613 143.422 11.255C143.834 10.8423 144.238 10.5014 144.639 10.2323C145.036 9.96316 145.353 9.8256 145.584 9.8256C146.433 9.8256 146.929 10.2891 147.07 11.2161C147.21 12.1431 147.267 13.417 147.243 15.0377V16.1561C147.473 15.8481 147.713 15.5132 147.958 15.1514C148.203 14.7895 148.454 14.4307 148.711 14.0718C149.459 13.0163 150.248 12.0444 151.086 11.1563C151.923 10.2682 152.88 9.8256 153.962 9.8256C154.71 9.8256 155.269 10.0888 155.643 10.618C156.017 11.1473 156.202 11.7454 156.202 12.4122C156.202 12.8757 156.035 13.3841 155.7 13.9373C155.365 14.4905 154.955 15.0497 154.465 15.6149C154.258 15.872 154.034 16.1292 153.789 16.3864C153.544 16.6435 153.293 16.8887 153.035 17.119C152.829 17.3253 152.623 17.5316 152.416 17.738C152.21 17.9443 152.019 18.1357 151.836 18.3181C151.863 18.2673 151.887 18.2075 151.914 18.1447C151.941 18.0789 151.965 18.0101 151.992 17.9323C152.07 17.7021 152.147 17.424 152.222 17.104C152.3 16.7811 152.363 16.4521 152.416 16.1202C152.416 15.9916 152.422 15.869 152.437 15.7524C152.449 15.6358 152.455 15.5132 152.455 15.3846C152.455 14.8703 152.366 14.4247 152.186 14.0539C152.007 13.6801 151.672 13.4947 151.181 13.4947C150.975 13.4947 150.718 13.6113 150.41 13.8416C150.102 14.0718 149.791 14.3559 149.483 14.6908C149.354 14.8194 149.232 14.954 149.115 15.0945C148.999 15.2351 148.876 15.3726 148.747 15.5012C148.335 15.9916 147.982 16.4462 147.686 16.8708C147.39 17.2954 147.24 17.5077 147.24 17.5077V24.6875C147.24 24.7144 147.124 24.834 146.893 25.0553C146.663 25.2736 146.367 25.5128 146.005 25.77C145.67 26.0002 145.302 26.2065 144.905 26.389C144.507 26.5684 144.088 26.685 143.649 26.7358V13.9582C143.649 13.7788 143.586 13.6054 143.454 13.4379C143.326 13.2704 143.135 13.1867 142.874 13.1867C142.644 13.1867 142.372 13.2704 142.064 13.4379C141.756 13.6054 141.421 13.8805 141.059 14.2662L141.02 14.2273H141.029ZM123.467 14.2273C123.623 14.021 123.787 13.7698 123.97 13.4738C124.149 13.1777 124.367 12.8757 124.624 12.5677C124.831 12.3375 125.028 12.1102 125.223 11.8919C125.417 11.6736 125.629 11.4613 125.859 11.255C126.272 10.8423 126.676 10.5014 127.077 10.2323C127.474 9.96316 127.791 9.8256 128.021 9.8256C128.871 9.8256 129.367 10.2891 129.508 11.2161C129.648 12.1431 129.708 13.417 129.681 15.0377V16.1561C129.911 15.8481 130.151 15.5132 130.396 15.1514C130.641 14.7895 130.892 14.4307 131.149 14.0718C131.894 13.0163 132.686 12.0444 133.524 11.1563C134.361 10.2682 135.318 9.8256 136.4 9.8256C137.145 9.8256 137.707 10.0888 138.078 10.618C138.452 11.1473 138.637 11.7454 138.637 12.4122C138.637 12.8757 138.47 13.3841 138.135 13.9373C137.8 14.4905 137.39 15.0497 136.9 15.6149C136.693 15.872 136.469 16.1292 136.224 16.3864C135.979 16.6435 135.727 16.8887 135.47 17.119C135.264 17.3253 135.058 17.5316 134.851 17.738C134.645 17.9443 134.454 18.1357 134.271 18.3181C134.298 18.2673 134.322 18.2075 134.349 18.1447C134.376 18.0789 134.4 18.0101 134.427 17.9323C134.504 17.7021 134.582 17.424 134.657 17.104C134.735 16.7811 134.798 16.4521 134.851 16.1202C134.851 15.9916 134.857 15.869 134.869 15.7524C134.881 15.6358 134.89 15.5132 134.89 15.3846C134.89 14.8703 134.8 14.4247 134.621 14.0539C134.442 13.6801 134.107 13.4947 133.616 13.4947C133.41 13.4947 133.153 13.6113 132.845 13.8416C132.537 14.0718 132.229 14.3559 131.918 14.6908C131.789 14.8194 131.667 14.954 131.55 15.0945C131.433 15.2351 131.311 15.3726 131.182 15.5012C130.77 15.9916 130.417 16.4462 130.121 16.8708C129.825 17.2954 129.678 17.5077 129.678 17.5077V24.6875C129.678 24.7144 129.561 24.834 129.331 25.0553C129.101 25.2736 128.802 25.5128 128.443 25.77C128.108 26.0002 127.74 26.2065 127.343 26.389C126.945 26.5684 126.526 26.685 126.09 26.7358V13.9582C126.09 13.7788 126.024 13.6054 125.895 13.4379C125.767 13.2704 125.572 13.1867 125.315 13.1867C125.085 13.1867 124.813 13.2704 124.505 13.4379C124.197 13.6054 123.862 13.8805 123.5 14.2662L123.461 14.2273H123.467ZM92.2363 11.5989C92.2363 8.54874 93.271 6.08472 95.3433 4.20082C97.4156 2.31692 101.243 1.369 106.826 1.369L107.445 0.75V1.33012C107.445 1.35703 108.223 1.369 109.781 1.369H121.227C121.254 1.91024 121.344 2.39766 121.497 2.82229C121.652 3.25289 121.843 3.6835 122.077 4.12307C122.205 4.40715 122.352 4.70319 122.519 4.99924C122.687 5.29528 122.86 5.5973 123.04 5.91128C123.246 6.29703 123.452 6.71568 123.659 7.1732C123.865 7.62473 124.044 8.13907 124.2 8.70424C123.892 8.44707 123.497 8.04039 123.022 7.50213C122.546 6.9549 121.972 6.37478 121.305 5.7528C120.405 4.9484 119.305 4.22175 118.004 3.5579C116.703 2.89705 115.142 2.56811 113.315 2.56811L107.409 2.52924V14.649C107.639 14.3918 107.897 14.0958 108.181 13.7609C108.465 13.4259 108.761 13.0791 109.069 12.7172C109.867 11.868 110.818 11.0965 111.925 10.3997C113.031 9.70599 114.317 9.35612 115.785 9.35612C116.79 9.35612 117.561 9.64618 118.103 10.2263C118.644 10.8034 118.913 11.545 118.913 12.4451C118.913 12.8578 118.847 13.2944 118.719 13.7579C118.59 14.2214 118.384 14.6968 118.1 15.1872C118.15 14.8523 118.183 14.5503 118.195 14.2812C118.207 14.012 118.216 13.7609 118.216 13.5276C118.216 12.3434 117.998 11.6228 117.561 11.3656C117.125 11.1084 116.634 10.9799 116.093 10.9799C115.707 10.9799 115.133 11.1653 114.374 11.5391C113.614 11.9128 112.81 12.4601 111.96 13.1807C110.827 14.1855 109.786 15.5042 108.833 17.1369C107.879 18.7696 107.403 20.6954 107.403 22.9082C107.403 25.1211 107.789 26.4458 108.56 26.8076C109.332 27.1694 110.672 27.3488 112.576 27.3488H112.846C115.366 27.3488 117.6 26.7687 119.544 25.6115C121.488 24.4542 123.013 22.7408 124.119 20.4771C124.119 20.5279 124.113 20.5788 124.098 20.6326C124.086 20.6834 124.08 20.7343 124.08 20.7881C123.976 21.5865 123.778 22.3819 123.482 23.1803C123.186 23.9788 122.872 24.7383 122.537 25.459C122.28 26.0241 122.035 26.5474 121.805 27.0229C121.574 27.4984 121.38 27.929 121.224 28.3177H98.7612C98.9167 28.24 99.1589 28.1174 99.4938 27.9499C99.8287 27.7824 100.188 27.5701 100.573 27.313C101.061 26.9511 101.512 26.5205 101.925 26.0211C102.338 25.5188 102.544 24.9087 102.544 24.1881V10.6001C102.544 10.2652 102.556 9.94522 102.583 9.62824C102.61 9.32024 102.646 9.00925 102.699 8.70125C102.855 7.94769 103.136 7.13133 103.549 6.25816C103.961 5.37602 104.592 4.147 105.442 2.5711C101.195 2.5711 98.2558 3.1901 96.6201 4.43108C94.9874 5.67206 94.1681 7.74434 94.1681 10.639C94.1681 13.7519 94.7153 16.0305 95.8098 17.4718C96.9042 18.9132 98.4024 20.1751 100.307 21.2546C97.2182 21.2546 95.1339 20.3665 94.0544 18.5902C92.9749 16.814 92.3829 14.8583 92.2782 12.7232C92.2513 12.5438 92.2393 12.3614 92.2393 12.182V11.6018L92.2363 11.5989Z" fill="#EC1C24"/>
</svg>
