<svg width="251" height="62" viewBox="0 0 251 62" fill="none" xmlns="http://www.w3.org/2000/svg">
<rect width="250.181" height="62" transform="translate(0.642578)" fill="white"/>
<path fill-rule="evenodd" clip-rule="evenodd" d="M29.6061 43.6247C32.331 46.2094 33.1173 42.0471 33.8097 40.0706C35.562 35.0643 39.4392 24.0625 41.775 18.0737L42.9421 21.214L49.1799 37.9985L55.4176 21.214L56.5847 18.0737C58.9206 24.0625 62.7994 35.0643 64.5517 40.0706C65.2424 42.0471 66.0303 46.2094 68.7552 43.6247C67.9722 41.124 55.6121 8 55.6121 8L49.1799 25.0351L42.7476 8C42.7476 8 30.3875 41.1223 29.6045 43.6247" fill="#2E3191"/>
<path d="M72.4235 31.8283C72.7004 31.9206 72.8867 31.9207 73.1637 32.013H73.6269C74.0901 32.1053 74.8302 32.2899 75.4781 32.2899L76.96 32.4745C76.96 32.4745 76.7754 32.5668 76.6831 32.5668L76.5908 32.6592C76.4985 32.8438 76.0353 33.0301 75.8506 33.1224L75.3874 33.3993C75.2951 33.4916 75.2951 33.5839 75.2028 33.5839L74.5549 33.9548C74.4626 33.9548 74.4626 34.0472 74.3703 34.0472C74.3088 34.1087 74.2472 34.1395 74.1857 34.1395L72.4268 35.3428C72.2422 35.5275 71.779 35.1582 71.5004 34.9719L71.1295 34.695C71.0679 34.695 71.0064 34.6642 70.9448 34.6027C70.7602 34.6027 70.4816 34.5104 70.2047 34.6027C69.9277 34.6027 69.9277 34.695 70.0201 34.7873C70.2047 34.9719 70.4833 35.3428 70.7602 35.5275V35.6198L71.0371 35.8967C71.1295 35.989 71.3141 36.1736 71.4081 36.2676L71.2234 36.5446C71.1311 36.6369 70.6679 37.0078 70.8525 37.0078C70.9448 37.0078 70.9448 36.9155 70.9448 36.9155H71.1295C71.3141 36.7308 71.685 36.7308 71.8696 36.6385C72.0542 36.5462 72.5175 36.4539 72.7021 36.2676H72.8867L73.5346 35.9907C73.6269 35.8984 73.7192 35.8984 73.8115 35.806L74.5517 35.4351C74.7363 35.3428 75.1995 35.1582 75.4781 34.9719L77.4216 34.0455V34.2301L77.237 34.4148C77.237 34.5071 77.1447 34.5994 77.1447 34.5994L76.7738 35.1549C76.7738 35.1549 76.6814 35.2472 76.6814 35.3395L76.0336 36.266L75.849 36.7292C75.849 36.9138 76.5891 36.7292 76.7754 36.7292L76.8677 36.6369C76.96 36.6369 77.2386 36.4522 77.3309 36.266C77.4233 36.1737 77.5156 36.0813 77.6079 35.989L77.9788 35.5258V35.4335H78.0711C78.1634 35.3412 78.1634 35.2489 78.2557 35.1566C78.2557 35.0642 78.348 35.1566 78.348 35.0642C78.348 34.9719 78.5327 34.8796 78.5327 34.7873C78.625 34.695 78.7173 34.5104 78.9036 34.4164C78.9036 34.3241 78.9959 34.3241 78.9959 34.2318L79.3668 33.7686L79.4591 33.5839H79.5514V33.4916H79.6437C79.6437 33.3993 79.736 33.3993 79.736 33.3993L79.8283 33.307C79.8283 33.1224 79.9207 33.1224 79.9207 33.1224H80.013C80.013 33.0301 79.9207 33.0301 80.013 32.9377C80.1053 32.8454 80.1053 32.9377 80.1053 32.8454C80.1976 32.7531 80.2899 32.7531 80.4762 32.6608L82.2351 31.6421L82.3274 31.5497C82.512 31.4574 82.6043 31.3651 82.7906 31.1788L82.8829 31.0865C82.9752 30.9942 83.0676 30.9942 83.0676 30.9019C83.2522 30.625 83.1599 30.9019 83.2522 30.625C83.3445 30.5327 84.2709 29.4216 83.0676 29.4216C82.6967 29.4216 82.4197 29.5139 82.0488 29.6062L81.3087 29.8832C81.2471 29.9447 81.1856 29.9755 81.124 29.9755L80.7531 30.1601H80.6608C80.6608 30.2524 80.6608 30.1601 80.5685 30.2524L80.2916 30.437C80.1069 30.437 79.4591 30.9003 79.3651 30.9926C79.0882 31.0849 78.8096 30.9926 78.5327 30.9926C78.348 30.9926 78.348 31.0849 78.1618 31.0849H75.755C75.6627 31.0849 75.5704 31.1772 75.3841 31.1772H73.8098L73.2543 31.2695C73.162 31.2695 73.2543 31.2695 73.162 31.3618C72.9774 31.3618 72.7911 31.4541 72.6065 31.5465C72.5142 31.6388 72.4218 31.7311 72.4218 31.8234L72.4235 31.8283Z" stroke="white" stroke-width="0.46" stroke-miterlimit="2.61"/>
<path fill-rule="evenodd" clip-rule="evenodd" d="M72.4304 31.8135C72.7452 31.8926 72.8771 31.9437 73.192 31.9965L73.6123 32.0492C74.059 32.0756 74.8717 32.2322 75.4487 32.2586L76.9702 32.4168C76.9175 32.4696 76.7609 32.5751 76.6817 32.5998L76.629 32.6262C76.4707 32.8092 76.0784 32.9938 75.8674 33.1504L75.3696 33.4389C75.2904 33.4916 75.2641 33.5444 75.1849 33.5971L74.5816 33.9647C74.4761 33.9911 74.5025 34.0175 74.397 34.0702C74.3179 34.1494 74.3179 34.123 74.214 34.1741L72.4024 35.3807C72.193 35.5126 71.8254 35.1714 71.5369 34.9868L71.1166 34.7247C71.0638 34.6719 71.0374 34.6455 70.9583 34.6192C70.7226 34.5664 70.4605 34.4889 70.1703 34.54C69.961 34.5664 69.9082 34.6455 70.0137 34.7494C70.2495 34.9587 70.5116 35.3 70.7226 35.5373L70.8017 35.6165V35.6429L71.0111 35.8522C71.1429 36.0105 71.2995 36.1407 71.3787 36.2989L71.1957 36.5083C71.1166 36.6402 70.6698 37.0061 70.8545 36.955C70.9336 36.955 70.9072 36.9286 70.96 36.9023L71.1446 36.8759C71.3539 36.744 71.6424 36.6913 71.8798 36.6138C72.0891 36.5083 72.5623 36.4044 72.7452 36.2989C72.7804 36.2813 72.8244 36.2638 72.8771 36.2462L73.5596 35.9313C73.6387 35.8786 73.7178 35.8522 73.7953 35.7995L74.5569 35.4582C74.7662 35.3016 75.1866 35.117 75.4487 34.9868L77.4169 34.0422C77.4697 34.1724 77.3906 34.2005 77.3906 34.2005L77.2603 34.3834L77.234 34.4362C77.2076 34.4889 77.1548 34.5664 77.1285 34.6192L76.7872 35.117C76.7609 35.1697 76.7081 35.2225 76.6817 35.3016L76.0784 36.2198C76.0257 36.2989 76.1048 36.1934 76.052 36.2726L75.8938 36.6929C75.8938 36.8775 76.629 36.772 76.7328 36.7193L76.8911 36.6665C76.9966 36.6402 77.2323 36.4044 77.3625 36.2726C77.468 36.1671 77.5208 36.0368 77.6246 35.9313L77.9659 35.511C77.9835 35.4934 78.001 35.4758 78.0186 35.4582C78.0186 35.4406 78.0274 35.4318 78.045 35.4318C78.1241 35.3263 78.2033 35.1961 78.2807 35.117C78.3071 35.0906 78.3335 35.117 78.3335 35.0642C78.3862 34.9604 78.4917 34.8549 78.5428 34.7494C78.6483 34.6439 78.7258 34.5137 78.8577 34.4345L78.8841 34.4082V34.3818C78.9368 34.2763 78.9632 34.3027 79.0143 34.1988L79.3819 33.7521H79.4083L79.5138 33.5938C79.5314 33.5762 79.5489 33.5587 79.5665 33.5411L79.5929 33.4883L79.6193 33.462C79.672 33.4092 79.6984 33.4356 79.6984 33.3828L79.8039 33.2526C79.8567 33.1471 79.9341 33.0943 79.9622 33.0696H79.9885C80.0413 33.0432 79.9622 33.0169 80.0677 32.9114C80.1204 32.8586 80.094 32.9114 80.1204 32.8586C80.2259 32.7004 80.2506 32.7267 80.4616 32.6229L82.2205 31.5992H82.2469L82.326 31.5201C82.4843 31.4146 82.6409 31.3107 82.7728 31.1525L82.903 31.0222C82.9821 30.9695 83.0612 30.9431 83.086 30.864L83.1123 30.8376C83.2426 30.6283 83.1915 30.8376 83.2953 30.6283C83.3481 30.498 84.2663 29.4216 83.086 29.4216C82.692 29.4216 82.4035 29.5271 82.0623 29.631L81.3007 29.8931C81.2479 29.9194 81.2216 29.9458 81.1705 29.9722L80.7501 30.1304H80.7237L80.6974 30.1568V30.1832C80.6446 30.2359 80.6974 30.1832 80.6182 30.2096L80.3034 30.3925C80.1451 30.4717 79.489 30.9184 79.3324 30.9695C79.0967 31.0222 78.7819 30.9959 78.5709 30.9959C78.3879 30.9959 78.3351 31.0222 78.1769 31.0222C77.3889 31.0222 76.5762 31.1014 75.7883 31.1014C75.63 31.1014 75.5789 31.1277 75.3943 31.1277C74.8701 31.1277 74.3179 31.1541 73.7936 31.1805L73.2694 31.2596C73.2167 31.2596 73.2694 31.2596 73.1903 31.3124C72.981 31.3915 72.7963 31.4706 72.6134 31.5745C72.5342 31.6536 72.4551 31.7047 72.4304 31.8102" fill="#2E3191"/>
<path d="M74.0817 36.9385C72.2304 38.4205 68.1571 41.6597 65.8427 42.8631C65.7504 42.8631 65.7504 42.9554 65.5658 43.0477C65.4734 43.14 65.2888 43.3246 65.1025 43.3246C65.1641 43.3862 65.3185 43.3554 65.5658 43.2323V43.14H65.6581C65.7504 43.0477 70.8424 40.0854 71.0271 40.0854C72.2304 39.4376 73.4338 38.6035 74.7295 37.8633L74.0817 36.9369V36.9385Z" stroke="white" stroke-width="0.46" stroke-miterlimit="2.61"/>
<path fill-rule="evenodd" clip-rule="evenodd" d="M74.0832 36.9303C72.2205 38.3991 68.1521 41.6531 65.869 42.835C65.7651 42.8878 65.7124 42.9653 65.5805 43.0444C65.4503 43.1235 65.292 43.3065 65.1338 43.3329C65.2129 43.412 65.1602 43.3856 65.5278 43.1746L65.5541 43.1483L65.6596 43.0955H65.686C65.7915 43.0164 70.8819 40.0508 71.0138 40.0261C72.2732 39.3964 73.4535 38.582 74.7393 37.8749L74.0832 36.9303Z" fill="#2E3191"/>
<path d="M69.3052 37.8914C69.2129 37.7991 69.2129 37.7067 69.1206 37.6144C69.0283 37.5221 69.0283 37.4298 68.936 37.4298L68.8437 37.1529H68.7514L68.659 36.9682C68.4744 37.0605 68.2881 37.2452 68.0112 37.3391C67.9189 37.5238 67.7343 37.6161 67.548 37.71L67.3634 37.8023C67.271 37.987 67.0864 38.0793 66.9001 38.1732L66.8078 38.2656H66.7155V38.3579L66.5309 38.4502L66.4386 38.5425C66.3463 38.6348 66.4386 38.5425 66.3463 38.5425C66.254 38.6348 66.3463 38.5425 66.3463 38.6348C66.1616 38.7271 65.9754 38.8194 65.8831 39.0057H65.6984C65.6984 39.1903 65.4215 39.2827 65.3275 39.2827C65.2352 39.375 65.2352 39.4673 65.1429 39.4673C65.0506 39.5596 65.0506 39.4673 64.9583 39.5596V39.6519H64.866L64.589 39.8365C64.4967 39.9289 64.4044 39.9289 64.4044 39.9289C64.3121 40.0212 64.4044 40.0212 64.3121 40.0212L64.2198 40.1135H64.1274C64.1274 40.2058 63.7565 40.3904 63.7565 40.4844L62.8301 41.1322C62.7378 41.1322 62.6455 41.2245 62.6455 41.2245C62.5839 41.2861 62.5224 41.3476 62.4609 41.4092L62.1839 41.5938C61.9993 41.6861 61.907 41.8707 61.7207 41.8707L61.6284 41.963C61.6284 42.0554 61.4438 42.1477 61.3515 42.1477L61.2591 42.24L60.8882 42.5169C60.7036 42.6092 60.5173 42.7939 60.425 42.8878C60.3327 42.9801 60.3327 42.8878 60.2404 42.9801C60.2404 42.9801 60.1481 43.0724 60.0558 43.1648L59.8711 43.2571H59.7788L59.6865 43.3494L62.7411 41.6828C62.9257 41.5905 63.2043 41.4059 63.3889 41.3119C63.4813 41.2196 63.3889 41.2196 63.4813 41.3119C63.5736 41.2196 63.4813 41.2196 63.5736 41.1273L64.8692 40.3871C64.9616 40.3871 65.1462 40.2948 65.2402 40.2025L65.7957 39.8316C65.8572 39.8316 65.9188 39.8008 65.9803 39.7393H66.1649C66.3496 39.5546 67.6469 38.9068 68.0161 38.6282L69.3118 37.8881L69.3052 37.8914Z" stroke="white" stroke-width="0.46" stroke-miterlimit="2.61"/>
<path fill-rule="evenodd" clip-rule="evenodd" d="M69.3077 37.8748C69.2549 37.7957 69.2022 37.7166 69.1494 37.6127C69.0703 37.5336 69.0192 37.4545 68.9664 37.377L68.8082 37.1676L68.7818 37.1413L68.6499 36.9319C68.4406 37.0374 68.256 37.2204 68.0466 37.3523C67.89 37.4841 67.7581 37.6144 67.5751 37.7199L67.3922 37.8254C67.2603 37.9556 67.0773 38.0611 66.9191 38.1666L66.8399 38.2194V38.2457H66.8136C66.8136 38.2457 66.7872 38.2721 66.7608 38.2721C66.7608 38.2985 66.7344 38.3249 66.7344 38.3249L66.5515 38.4304C66.5251 38.4567 66.4987 38.4831 66.4723 38.5095C66.3668 38.5886 66.446 38.5359 66.3668 38.5622C66.2877 38.5886 66.3405 38.5622 66.3141 38.5886C66.2102 38.7452 65.9728 38.8243 65.8426 38.9562C65.7371 39.0353 65.7371 39.009 65.6596 39.0353C65.6596 39.1408 65.4223 39.2711 65.3184 39.3238C65.2393 39.3766 65.1882 39.4293 65.1091 39.4821C65.0563 39.5348 65.0563 39.5084 65.0036 39.5348C64.9772 39.5612 64.9772 39.5876 64.9244 39.6139C64.8981 39.6139 64.8717 39.6403 64.8717 39.6403L64.5568 39.876C64.5041 39.9024 64.4513 39.9024 64.3986 39.9552C64.3458 40.0079 64.425 39.9815 64.3458 40.0343C64.2156 40.1134 64.2667 40.0079 64.1876 40.1134L64.1612 40.1398C64.1085 40.2189 63.7936 40.4283 63.7145 40.481L62.8227 41.1107C62.7435 41.1635 62.6908 41.241 62.6133 41.269C62.5078 41.2954 62.5342 41.3217 62.4551 41.3992L62.1402 41.6086C62.0083 41.6877 61.8781 41.8443 61.7462 41.8971L61.6424 41.9498C61.5896 42.0289 61.4577 42.1328 61.3539 42.1592C61.2748 42.2119 61.3275 42.1855 61.2237 42.2647L60.8561 42.5268C60.6995 42.6586 60.5148 42.7641 60.3846 42.8944C60.3055 42.9471 60.3582 42.9207 60.2791 42.9735C60.2 43.0262 60.1208 43.0526 60.0697 43.1317L59.834 43.2636C59.8076 43.2636 59.834 43.2372 59.8076 43.2636L59.7285 43.3938L62.7205 41.6613C62.9034 41.5558 63.1672 41.3728 63.3502 41.2937C63.4557 41.2673 63.3502 41.2673 63.4804 41.2937C63.5331 41.1882 63.454 41.241 63.6123 41.1635L64.8717 40.4283C65.0036 40.3492 65.1091 40.2981 65.2657 40.2189L65.8162 39.8777C65.8954 39.8513 65.9218 39.7986 66.0009 39.7722L66.1311 39.7194C66.3141 39.5365 67.6263 38.8804 67.9939 38.6166L69.306 37.8814L69.3077 37.8748Z" fill="#2E3191"/>
<path d="M25.9519 31.8283C25.675 31.9206 25.4887 31.9207 25.2118 32.013H24.7486C24.2854 32.1053 23.5452 32.2899 22.8974 32.2899L21.4154 32.4745C21.4154 32.4745 21.6 32.5668 21.6923 32.5668L21.7847 32.6592C21.877 32.8438 22.3402 33.0301 22.5248 33.1224L22.988 33.3993C23.0803 33.4916 23.0803 33.5839 23.1727 33.5839L23.8205 33.9548C23.9128 33.9548 23.9128 34.0472 24.0051 34.0472C24.0667 34.1087 24.1282 34.1395 24.1897 34.1395L25.9486 35.3428C26.1333 35.5275 26.5965 35.1582 26.8751 34.9719L27.246 34.695C27.3075 34.695 27.3691 34.6642 27.4306 34.6027C27.6152 34.6027 27.8938 34.5104 28.1708 34.6027C28.4477 34.6027 28.4477 34.695 28.3554 34.7873C28.0784 34.9719 27.8922 35.3428 27.6152 35.5275V35.6198L27.3383 35.8967C27.246 35.989 27.0614 36.1736 26.9674 36.2676L27.152 36.5446C27.2443 36.6369 27.7075 37.0078 27.5229 37.0078C27.4306 37.0078 27.4306 36.9155 27.4306 36.9155H27.246C27.0614 36.7308 26.7828 36.7308 26.5058 36.6385C26.3212 36.5462 25.858 36.4539 25.6734 36.2676H25.4887L24.8409 35.9907C24.7486 35.8984 24.6563 35.8984 24.5639 35.806L23.8238 35.4351C23.6392 35.3428 23.176 35.1582 22.8974 34.9719L20.9538 34.0455V34.2301L21.1385 34.4148C21.1385 34.5071 21.2308 34.5994 21.2308 34.5994L21.6017 35.1549C21.6017 35.1549 21.694 35.2472 21.694 35.3395L22.3418 36.266L22.5265 36.7292C22.5265 36.9138 21.7863 36.7292 21.694 36.7292L21.5094 36.6369C21.4171 36.6369 21.1385 36.4522 21.0462 36.266L20.7692 35.989L20.3983 35.5258V35.4335H20.306C20.306 35.3412 20.2137 35.2489 20.1214 35.1566C20.1214 35.0642 20.0291 35.1566 20.0291 35.0642C20.0291 34.9719 19.9367 34.8796 19.8444 34.7873C19.7521 34.695 19.6598 34.5104 19.5675 34.4164H19.4752C19.4752 34.3241 19.3829 34.3241 19.3829 34.2318L19.012 33.7686L18.9196 33.5839H18.8273V33.4916H18.735C18.735 33.3993 18.6427 33.3993 18.6427 33.3993L18.5504 33.307C18.5504 33.1224 18.4581 33.1224 18.4581 33.1224H18.3658C18.3658 33.0301 18.4581 33.0301 18.3658 32.9377C18.2735 32.8454 18.2735 32.9377 18.2735 32.8454C18.2119 32.7839 18.0883 32.7223 17.9026 32.6608L16.1437 31.6421L16.0513 31.5497C15.8667 31.4574 15.7744 31.3651 15.5881 31.1788L15.4958 31.0865C15.4035 30.9942 15.3112 30.9942 15.3112 30.9019C15.1266 30.625 15.2189 30.9019 15.1266 30.625C15.0342 30.5327 14.1078 29.4216 15.3112 29.4216C15.6821 29.4216 15.959 29.5139 16.3299 29.6062L17.0701 29.8832C17.1316 29.9447 17.1932 29.9755 17.2547 29.9755L17.6256 30.1601H17.7179C17.7179 30.2524 17.7179 30.1601 17.8102 30.2524L18.0872 30.437C18.2718 30.437 18.9196 30.9003 19.0136 30.9926C19.2906 31.0849 19.5691 30.9926 19.8461 30.9926C20.0307 30.9926 20.0307 31.0849 20.217 31.0849H22.6237C22.716 31.0849 22.8083 31.1772 22.9946 31.1772H24.5689L25.1244 31.2695C25.2167 31.2695 25.1244 31.2695 25.2167 31.3618C25.4014 31.3618 25.5876 31.4541 25.7723 31.5465C25.8646 31.6388 25.9569 31.7311 25.9569 31.8234L25.9519 31.8283Z" stroke="white" stroke-width="0.46" stroke-miterlimit="2.61"/>
<path fill-rule="evenodd" clip-rule="evenodd" d="M25.9466 31.8135C25.6318 31.8926 25.4999 31.9437 25.185 31.9965L24.7647 32.0492C24.3179 32.0756 23.5053 32.2322 22.9283 32.2586L21.4068 32.4168C21.4595 32.4696 21.6161 32.5751 21.6953 32.5998L21.748 32.6262C21.9063 32.8092 22.2986 32.9938 22.5096 33.1504L23.0074 33.4389C23.0865 33.4916 23.1129 33.5444 23.1904 33.5971L23.7937 33.9647C23.8992 33.9911 23.8729 34.0175 23.9784 34.0702C24.0575 34.1494 24.0575 34.123 24.1613 34.1741L25.9713 35.3807C26.1807 35.5126 26.5483 35.1714 26.8368 34.9868L27.2571 34.7247C27.3099 34.6719 27.3363 34.6455 27.4154 34.6192C27.6528 34.5664 27.9132 34.4889 28.2033 34.54C28.4127 34.5664 28.4654 34.6455 28.3599 34.7494C28.1242 34.9587 27.8621 35.3 27.6511 35.5373L27.572 35.6165V35.6429L27.3626 35.8522C27.2324 36.0105 27.0742 36.1407 26.995 36.2989L27.178 36.5083C27.2571 36.6402 27.7022 37.0061 27.5192 36.955C27.4401 36.955 27.4665 36.9286 27.4137 36.9023L27.2308 36.8759C27.0214 36.744 26.7329 36.6913 26.4955 36.6138C26.2862 36.5083 25.8131 36.4044 25.6301 36.2989C25.5949 36.2813 25.5515 36.2638 25.4999 36.2462L24.8174 35.9313C24.7383 35.8786 24.6592 35.8522 24.5817 35.7995L23.8201 35.4582C23.6108 35.3016 23.1904 35.117 22.9283 34.9868L20.96 34.0422C20.9073 34.1724 20.9864 34.2005 20.9864 34.2005L21.1166 34.3834L21.143 34.4362C21.1694 34.4889 21.2221 34.5664 21.2485 34.6192L21.5898 35.117C21.6161 35.1697 21.6689 35.2225 21.6953 35.3016L22.2986 36.2198C22.3513 36.2989 22.2722 36.1934 22.325 36.2726L22.4832 36.6929C22.4832 36.8775 21.748 36.772 21.6442 36.7193L21.4859 36.6665C21.3804 36.6402 21.1447 36.4044 21.0128 36.2726C20.9073 36.1671 20.8545 36.0368 20.7507 35.9313L20.4095 35.511C20.3919 35.4934 20.3743 35.4758 20.3567 35.4582C20.3567 35.4406 20.3479 35.4318 20.3303 35.4318C20.2512 35.3263 20.1721 35.1961 20.0946 35.117C20.0682 35.0906 20.0419 35.117 20.0419 35.0642C19.9891 34.9604 19.8836 34.8549 19.8325 34.7494C19.727 34.6439 19.6495 34.5137 19.5177 34.4345L19.4913 34.4082V34.3818C19.4385 34.2763 19.4122 34.3027 19.3594 34.1988L18.9918 33.7521H18.9654L18.8599 33.5938L18.8072 33.5411L18.7808 33.4883L18.7544 33.462C18.7017 33.4092 18.6753 33.4356 18.6753 33.3828L18.5714 33.2526C18.5187 33.1471 18.4396 33.0943 18.4132 33.0696H18.3868C18.3341 33.0432 18.4132 33.0169 18.3077 32.9114C18.2549 32.8586 18.2813 32.9114 18.2549 32.8586C18.1494 32.7004 18.1247 32.7267 17.9137 32.6229L16.1548 31.5992H16.1284L16.0493 31.5201C15.8911 31.4146 15.7345 31.3107 15.6026 31.1525L15.4724 31.0222C15.3932 30.9695 15.3141 30.9431 15.2877 30.864L15.2613 30.8376C15.1311 30.6283 15.1822 30.8376 15.0784 30.6283C15.0256 30.498 14.1074 29.4216 15.2877 29.4216C15.6817 29.4216 15.9702 29.5271 16.3114 29.631L17.073 29.8931C17.1257 29.9194 17.1521 29.9458 17.2032 29.9722L17.6236 30.1304H17.65L17.6763 30.1568V30.1832C17.7291 30.2359 17.6763 30.1832 17.7555 30.2096L18.0703 30.3925C18.2269 30.4717 18.883 30.9184 19.0412 30.9695C19.277 31.0222 19.5918 30.9959 19.8028 30.9959C19.9858 30.9959 20.0386 31.0222 20.1968 31.0222C20.9848 31.0222 21.7975 31.1014 22.5854 31.1014C22.7437 31.1014 22.7948 31.1277 22.9794 31.1277C23.5036 31.1277 24.0558 31.1541 24.58 31.1805L25.1043 31.2596C25.157 31.2596 25.1043 31.2596 25.1834 31.3124C25.3927 31.3915 25.5774 31.4706 25.7603 31.5745C25.8395 31.6536 25.9169 31.7047 25.9433 31.8102" fill="#2E3191"/>
<path d="M24.2953 36.9385C26.1465 38.4205 30.2198 41.6597 32.5343 42.8631C32.6266 42.8631 32.6266 42.9554 32.8112 43.0477C32.9035 43.14 33.0881 43.3246 33.2744 43.3246C33.2129 43.3862 33.0585 43.3554 32.8112 43.2323V43.14H32.7189C32.6266 43.0477 27.5345 40.0854 27.3499 40.0854C26.1465 39.4376 24.9431 38.6035 23.6475 37.8633L24.2953 36.9369V36.9385Z" stroke="white" stroke-width="0.46" stroke-miterlimit="2.61"/>
<path fill-rule="evenodd" clip-rule="evenodd" d="M24.2935 36.9303C26.1562 38.3991 30.223 41.6531 32.5061 42.835C32.6116 42.8878 32.6643 42.9653 32.7945 43.0444C32.9264 43.1235 33.083 43.3065 33.2413 43.3329C33.1621 43.412 33.2149 43.3856 32.8473 43.1746L32.8209 43.1483L32.7154 43.0955H32.689C32.5835 43.0164 27.4931 40.0508 27.3612 40.0261C26.1018 39.3964 24.9215 38.582 23.6357 37.8749L24.2918 36.9303H24.2935Z" fill="#2E3191"/>
<path d="M29.073 37.8914C29.1653 37.7991 29.1653 37.7067 29.2576 37.6144C29.3499 37.5221 29.3499 37.4298 29.4423 37.4298L29.5346 37.1529H29.6269L29.7192 36.9682C29.9038 37.0605 30.0901 37.2452 30.367 37.3391C30.4593 37.5238 30.644 37.6161 30.8302 37.71L31.0149 37.8023C31.1072 37.987 31.2918 38.0793 31.4781 38.1732L31.5704 38.2656H31.6627V38.3579L31.8473 38.4502L31.9397 38.5425C32.032 38.6348 31.9397 38.5425 32.032 38.5425C32.1243 38.6348 32.032 38.5425 32.032 38.6348C32.1243 38.7271 32.4029 38.8194 32.4952 39.0057H32.6798C32.6798 39.1903 32.9568 39.2827 33.0507 39.2827C33.143 39.375 33.143 39.4673 33.2353 39.4673C33.3277 39.5596 33.3277 39.4673 33.3277 39.5596C33.3892 39.5596 33.42 39.5904 33.42 39.6519H33.5123L33.7892 39.8365C33.8815 39.9289 33.9738 39.9289 33.9738 39.9289C34.0662 40.0212 33.9738 40.0212 34.0662 40.0212L34.1585 40.1135H34.2508C34.2508 40.2058 34.6217 40.3904 34.6217 40.4844L35.5481 41.1322C35.6404 41.1322 35.7327 41.2245 35.7327 41.2245C35.7943 41.2861 35.8558 41.3476 35.9174 41.4092L36.1943 41.5938C36.3789 41.6861 36.4713 41.8707 36.6575 41.8707L36.7498 41.963C36.7498 42.0554 36.9345 42.1477 37.0268 42.1477L37.1191 42.24L37.49 42.5169C37.6746 42.6092 37.8609 42.7939 37.9532 42.8878C38.0455 42.9801 38.0455 42.8878 38.0455 42.9801C38.1378 42.9801 38.2301 43.0724 38.3225 43.1648L38.5071 43.2571H38.5994L38.6917 43.3494L35.6371 41.6828C35.4525 41.5905 35.1739 41.4059 34.9893 41.3119C34.897 41.2196 34.9893 41.2196 34.897 41.3119C34.8047 41.2196 34.897 41.2196 34.8047 41.1273L33.509 40.3871C33.3244 40.3871 33.232 40.2948 33.1381 40.2025L32.5826 39.8316C32.521 39.8316 32.4595 39.8008 32.3979 39.7393H32.2133C32.0287 39.5546 30.7313 38.9068 30.3621 38.6282L29.0664 37.8881L29.073 37.8914Z" stroke="white" stroke-width="0.46" stroke-miterlimit="2.61"/>
<path fill-rule="evenodd" clip-rule="evenodd" d="M29.0684 37.8749C29.1211 37.7957 29.1739 37.7166 29.2266 37.6128C29.3057 37.5336 29.3568 37.4545 29.4096 37.377L29.5678 37.1677L29.5942 37.1413L29.7261 36.9319C29.9354 37.0374 30.1201 37.2204 30.3294 37.3523C30.486 37.4842 30.6179 37.6144 30.8009 37.7199L30.9839 37.8254C31.1157 37.9556 31.2987 38.0611 31.457 38.1666L31.5361 38.2194V38.2458H31.5625C31.5625 38.2458 31.5888 38.2721 31.6152 38.2721C31.6152 38.2985 31.6416 38.3249 31.6416 38.3249L31.8246 38.4304C31.8509 38.4568 31.8773 38.4831 31.9037 38.5095C32.0092 38.5886 31.9301 38.5359 32.0092 38.5623C32.0883 38.5886 32.0356 38.5623 32.0619 38.5886C32.1674 38.7452 32.4032 38.8244 32.5334 38.9562C32.6389 39.0354 32.6389 39.009 32.718 39.0354C32.718 39.1409 32.9538 39.2711 33.0593 39.3238C33.1384 39.3766 33.1895 39.4293 33.2686 39.4821C33.3214 39.5348 33.3214 39.5085 33.3741 39.5349C33.4005 39.5612 33.4005 39.5876 33.4532 39.614C33.4796 39.614 33.506 39.6404 33.506 39.6404L33.8208 39.8761C33.8736 39.9025 33.9263 39.9025 33.9791 39.9552C34.0318 40.008 33.9527 39.9816 34.0318 40.0343C34.1621 40.1135 34.111 40.008 34.1901 40.1135L34.2165 40.1398C34.2692 40.219 34.5841 40.4283 34.6632 40.4811L35.555 41.1108C35.6341 41.1635 35.6869 41.241 35.7644 41.269C35.8699 41.2954 35.8435 41.3218 35.9226 41.3992L36.2375 41.6086C36.3677 41.6877 36.4996 41.8443 36.6315 41.8971L36.737 41.9498C36.7897 42.029 36.9199 42.1328 37.0254 42.1592C37.1046 42.2119 37.0518 42.1856 37.1557 42.2647L37.5233 42.5268C37.6815 42.6587 37.8645 42.7642 37.9947 42.8944C38.0738 42.9471 38.0211 42.9208 38.1002 42.9735C38.1793 43.0263 38.2585 43.0526 38.3096 43.1318L38.5453 43.2636C38.5717 43.2636 38.5453 43.2373 38.5717 43.2636L38.6508 43.3939L35.6589 41.6613C35.4759 41.5558 35.2121 41.3729 35.0292 41.2937C34.9237 41.2674 35.0292 41.2674 34.8973 41.2937C34.8445 41.1882 34.9237 41.241 34.7671 41.1635L33.5076 40.4283C33.3774 40.3492 33.2719 40.2981 33.1153 40.219L32.5647 39.8777C32.4856 39.8514 32.4592 39.7986 32.3801 39.7722L32.2499 39.7195C32.0669 39.5365 30.7547 38.8804 30.3871 38.6167L29.075 37.8815L29.0684 37.8749Z" fill="#2E3191"/>
<path fill-rule="evenodd" clip-rule="evenodd" d="M8.64258 20.459H29.024C32.7363 20.459 32.5616 20.6453 35.6854 23.3883C39.3582 26.6126 47.7851 43.989 49.1813 48.4975C50.5792 43.989 59.0061 26.611 62.6788 23.3883C65.8026 20.6469 65.6279 20.459 69.3402 20.459H89.7217C86.588 23.4344 84.6115 25.2889 83.1262 26.4478C78.3358 30.1799 71.4107 27.1533 65.2372 30.114C61.9469 31.6915 60.4534 34.4279 58.073 38.6216C54.491 44.9335 49.3824 53.6588 49.1829 54C48.9835 53.6588 43.8766 44.9352 40.2928 38.6216C37.9125 34.4279 36.4173 31.6915 33.1287 30.114C26.9552 27.1533 20.0301 30.1799 15.2397 26.4478C13.7528 25.2906 11.7763 23.4344 8.64423 20.459" fill="#EC1C24"/>
<path d="M235.878 41.635C236.006 41.644 236.126 41.662 236.24 41.6829C236.353 41.7038 236.461 41.7248 236.569 41.7457C236.59 41.7457 236.611 41.7457 236.631 41.7547C236.652 41.7606 236.673 41.7666 236.694 41.7786C236.781 41.7995 236.865 41.8145 236.942 41.8264C237.02 41.8384 237.113 41.8414 237.209 41.8414C237.325 41.8414 237.46 41.8234 237.609 41.7846C237.759 41.7457 237.923 41.6919 238.106 41.6141C237.902 41.9251 237.765 42.2182 237.687 42.4963C237.612 42.7744 237.552 42.9986 237.511 43.1691C237.502 43.19 237.493 43.208 237.487 43.2259C237.481 43.2408 237.478 43.2558 237.478 43.2648C237.337 43.1153 237.206 42.9807 237.077 42.8641C236.948 42.7474 236.826 42.6488 236.709 42.574C236.518 42.4574 236.323 42.3737 236.132 42.3258C235.938 42.278 235.719 42.254 235.474 42.254C235.056 42.254 234.774 42.3318 234.625 42.4873C234.475 42.6428 234.401 42.8222 234.401 43.0255C234.401 43.196 234.484 43.3425 234.649 43.4681C234.816 43.5907 235.026 43.7073 235.283 43.812C235.444 43.8748 235.609 43.9436 235.779 44.0124C235.95 44.0811 236.126 44.1529 236.308 44.2277C236.781 44.443 237.215 44.7211 237.609 45.062C238.004 45.4028 238.204 45.8903 238.204 46.5212C238.204 47.2808 237.992 47.8041 237.57 48.0881C237.146 48.3722 236.685 48.5397 236.183 48.5935C236.054 48.6055 235.923 48.6115 235.788 48.6174C235.654 48.6234 235.522 48.6264 235.393 48.6264C234.58 48.6264 234.06 48.4799 233.835 48.1838C233.611 47.8878 233.495 47.1432 233.483 45.9441C233.516 46.0398 233.554 46.1385 233.602 46.2401C233.65 46.3418 233.701 46.4405 233.755 46.5362C233.979 46.9309 234.29 47.2957 234.685 47.6276C235.082 47.9596 235.564 48.127 236.129 48.127C236.515 48.127 236.796 48.0433 236.972 47.8788C237.149 47.7114 237.238 47.4632 237.238 47.1312C237.238 46.907 237.143 46.7246 236.948 46.587C236.757 46.4465 236.521 46.3149 236.243 46.1863C236.114 46.1325 235.98 46.0727 235.833 46.0099C235.689 45.9471 235.546 45.8813 235.408 45.8155C234.948 45.6032 234.529 45.3221 234.149 44.9722C233.77 44.6254 233.578 44.108 233.578 43.4233C233.578 42.6847 233.818 42.2032 234.293 41.9789C234.768 41.7547 235.298 41.641 235.875 41.641V41.6261L235.878 41.635ZM229.763 42.6936C229.365 42.6936 229.066 42.9239 228.863 43.3844C228.659 43.8449 228.558 44.3592 228.558 44.9244C228.558 45.1696 228.576 45.4178 228.614 45.663C228.65 45.9082 228.707 46.1385 228.782 46.3538C228.869 46.267 229 46.1444 229.177 45.986C229.353 45.8245 229.538 45.6451 229.73 45.4387C229.817 45.364 229.897 45.2802 229.978 45.1905C230.059 45.1008 230.131 45.0111 230.196 44.9244C230.358 44.733 230.489 44.5446 230.597 44.3622C230.705 44.1798 230.758 44.0183 230.758 43.8808C230.758 43.818 230.752 43.7372 230.744 43.6416C230.732 43.5459 230.711 43.4472 230.678 43.3515C230.624 43.181 230.528 43.0285 230.391 42.894C230.25 42.7594 230.044 42.6936 229.766 42.6936H229.763ZM227.05 45.7766C227.05 44.5147 227.412 43.516 228.133 42.7833C228.857 42.0507 229.703 41.6829 230.678 41.6829C230.872 41.6829 231.046 41.6978 231.207 41.7307C231.368 41.7636 231.521 41.8204 231.674 41.9072C231.844 41.9939 232.02 42.1105 232.203 42.26C232.385 42.4095 232.595 42.6009 232.828 42.8372L228.925 46.7216C229.054 46.9458 229.204 47.1163 229.374 47.2269C229.544 47.3406 229.715 47.4213 229.888 47.4751C230.05 47.517 230.208 47.5439 230.364 47.5559C230.519 47.5678 230.66 47.5708 230.788 47.5708C230.851 47.5708 230.914 47.5708 230.974 47.5619C231.034 47.5559 231.093 47.5499 231.159 47.5379C231.342 47.4961 231.518 47.4393 231.688 47.3675C231.859 47.2987 232.02 47.221 232.17 47.1342C232.373 47.0385 232.538 46.9429 232.66 46.8532C232.783 46.7634 232.846 46.7156 232.846 46.7156C232.427 47.3585 231.961 47.8429 231.44 48.1689C230.923 48.4948 230.331 48.6593 229.667 48.6593C228.94 48.6593 228.387 48.4799 228.013 48.121C227.64 47.7622 227.382 47.3645 227.242 46.9249C227.167 46.7216 227.116 46.5212 227.089 46.3239C227.062 46.1265 227.05 45.9471 227.05 45.7856V45.7707V45.7766ZM224.625 42.1823C223.824 42.1912 223.19 42.4753 222.729 43.0315C222.269 43.5877 222.012 44.1978 221.961 44.8616C221.949 44.9035 221.943 44.9453 221.943 44.9902V45.1188C221.943 45.675 222.036 46.0697 222.224 46.2999C222.412 46.5302 222.646 46.6408 222.924 46.6289C223.052 46.6289 223.187 46.6079 223.334 46.5631C223.477 46.5212 223.624 46.4614 223.776 46.3867C223.926 46.3119 224.072 46.2192 224.219 46.1145C224.362 46.0069 224.5 45.8962 224.628 45.7766V42.1823H224.625ZM224.625 50.6598V46.5182C224.542 46.6139 224.341 46.7874 224.03 47.0326C223.719 47.2808 223.387 47.5888 223.034 47.9655C222.628 48.3932 222.257 48.8985 221.919 49.4757C221.581 50.0528 221.414 50.6867 221.414 51.3715C221.414 52.0563 221.56 52.4809 221.856 52.7112C222.152 52.9414 222.502 53.0551 222.909 53.0551C223.444 53.0551 223.863 52.8128 224.168 52.3314C224.473 51.85 224.625 51.2938 224.625 50.6598ZM226.135 41.7188V49.4248C226.135 50.7316 225.744 51.8201 224.963 52.6932C224.183 53.5664 223.322 54 222.38 54C221.641 54 221.142 53.7847 220.878 53.3481C220.615 52.9145 220.475 52.4361 220.454 51.9128V51.7034C220.454 51.3924 220.517 50.9917 220.639 50.4983C220.762 50.0049 221.151 49.374 221.802 48.6025H221.674C221.354 48.5606 221.061 48.3483 220.798 47.9685C220.535 47.5888 220.403 47.0445 220.403 46.3388C220.403 45.1517 220.726 44.1888 221.375 43.4562C222.024 42.7235 222.735 42.2241 223.519 41.955C223.722 41.8922 223.929 41.8414 224.138 41.8025C224.347 41.7666 224.548 41.7457 224.739 41.7457L226.135 41.7128V41.7188ZM217.209 42.1853C216.408 42.1942 215.774 42.4783 215.313 43.0345C214.853 43.5907 214.596 44.2007 214.542 44.8646C214.53 44.9065 214.527 44.9483 214.527 44.9932V45.1218C214.527 45.678 214.62 46.0727 214.808 46.3029C214.997 46.5332 215.23 46.6438 215.508 46.6319C215.636 46.6319 215.774 46.6109 215.918 46.5661C216.061 46.5242 216.211 46.4644 216.36 46.3897C216.51 46.3149 216.656 46.2222 216.803 46.1175C216.946 46.0099 217.084 45.8992 217.212 45.7796V42.1853H217.209ZM217.323 41.7367H218.719V47.6755C218.731 47.7622 218.755 47.819 218.791 47.8519C218.827 47.8848 218.875 47.8938 218.929 47.8848C219.036 47.8848 219.174 47.84 219.347 47.7473C219.518 47.6575 219.712 47.5529 219.925 47.4333C219.892 47.4961 219.856 47.5648 219.811 47.6336C219.769 47.7024 219.721 47.7712 219.667 47.834C219.539 47.9955 219.383 48.148 219.201 48.3005C219.018 48.45 218.833 48.5576 218.639 48.6204C218.573 48.6414 218.513 48.6563 218.453 48.6683C218.394 48.6802 218.34 48.6832 218.286 48.6832C218.244 48.6832 218.172 48.6683 218.077 48.6354C217.981 48.6025 217.879 48.5487 217.772 48.4739C217.631 48.3662 217.505 48.2257 217.386 48.0493C217.269 47.8728 217.209 47.6546 217.209 47.4004V46.5182C217.123 46.6139 216.985 46.7634 216.791 46.9608C216.599 47.1582 216.384 47.3645 216.148 47.5798C216.061 47.6665 215.977 47.7473 215.891 47.822C215.807 47.8968 215.714 47.9655 215.618 48.0313C215.394 48.2257 215.17 48.3812 214.952 48.5068C214.73 48.6294 214.542 48.6922 214.38 48.6922H214.318C214.297 48.6922 214.276 48.6862 214.255 48.6772C213.935 48.6354 213.642 48.4111 213.379 48.0104C213.116 47.6097 212.984 47.0565 212.984 46.3478C212.984 44.8496 213.4 43.7103 214.228 42.9269C215.056 42.1464 216.088 41.7547 217.317 41.7547V41.7397L217.323 41.7367ZM209.874 42.6518C209.907 42.5979 209.955 42.5172 210.018 42.4095C210.08 42.3019 210.158 42.1853 210.242 42.0567C210.359 41.8952 210.496 41.7427 210.652 41.5992C210.807 41.4556 210.972 41.3839 211.142 41.3839C211.184 41.3839 211.268 41.4287 211.39 41.5214C211.513 41.6111 211.638 41.7337 211.767 41.8832C211.937 42.0866 212.093 42.3288 212.233 42.6069C212.374 42.885 212.443 43.184 212.443 43.507C212.443 43.7642 212.263 44.2127 211.905 44.8586C211.546 45.5015 211.148 46.2072 210.708 46.9817C210.622 47.1312 210.538 47.2808 210.46 47.4333C210.379 47.5828 210.296 47.7383 210.212 47.8998C209.88 48.5217 209.59 49.1348 209.345 49.7388C209.1 50.3458 208.977 50.8691 208.977 51.3057V51.4104C208.977 51.4493 208.983 51.4822 208.992 51.515C209.025 51.9756 209.186 52.3972 209.473 52.777C209.76 53.1567 210.152 53.3451 210.646 53.3451C211.031 53.3451 211.33 53.2554 211.546 53.073C211.761 52.8906 211.964 52.6065 212.156 52.2208C212.177 52.1669 212.201 52.1071 212.227 52.0443C212.254 51.9815 212.284 51.9157 212.314 51.85C212.314 52.5138 212.153 52.9953 211.833 53.2943C211.513 53.5933 211.154 53.7937 210.756 53.8894C210.607 53.9312 210.457 53.9581 210.305 53.9701C210.155 53.9821 210.018 53.985 209.886 53.985C209.106 53.985 208.508 53.8535 208.098 53.5903C207.688 53.3272 207.479 52.8338 207.479 52.1041C207.479 51.9217 207.506 51.7333 207.56 51.533C207.613 51.3356 207.682 51.1413 207.769 50.9469C207.865 50.7226 207.978 50.5013 208.107 50.28C208.235 50.0618 208.364 49.8554 208.493 49.6611C208.675 49.383 208.851 49.1378 209.022 48.9224C209.192 48.7071 209.321 48.5487 209.408 48.441C209.408 48.441 209.291 48.1719 209.055 47.6276C208.819 47.0894 208.54 46.4883 208.22 45.8364C208.167 45.7288 208.11 45.6181 208.053 45.4955C207.993 45.3789 207.936 45.2653 207.883 45.1576C207.625 44.6642 207.377 44.2277 207.135 43.8539C206.893 43.4801 206.704 43.2737 206.567 43.2409C206.525 43.2319 206.483 43.2259 206.447 43.2259H206.328C206.274 43.2259 206.217 43.2259 206.16 43.2349C206.1 43.2408 206.041 43.2528 205.975 43.2737C205.834 43.2947 205.703 43.3365 205.574 43.3904C205.445 43.4442 205.329 43.498 205.221 43.5518C205.125 43.5937 205.045 43.6356 204.979 43.6804C204.916 43.7223 204.856 43.7612 204.803 43.7941C204.877 43.6774 204.973 43.5369 205.084 43.3754C205.197 43.2109 205.323 43.0465 205.46 42.876C205.601 42.7056 205.75 42.5381 205.909 42.3796C206.067 42.2212 206.229 42.0776 206.39 41.958C206.519 41.8623 206.651 41.7846 206.785 41.7248C206.92 41.665 207.045 41.638 207.162 41.638C207.527 41.638 207.883 41.9341 208.229 42.5292C208.576 43.1242 208.917 43.7791 209.249 44.4968C209.312 44.6373 209.378 44.7719 209.44 44.9065C209.503 45.041 209.569 45.1756 209.635 45.3161C209.775 45.5853 209.907 45.8394 210.036 46.0876C210.164 46.3328 210.299 46.5481 210.436 46.7305C210.436 46.7305 210.472 46.6618 210.55 46.5212C210.625 46.3807 210.711 46.2072 210.807 45.9919C210.861 45.8514 210.915 45.7079 210.969 45.5583C211.022 45.4088 211.064 45.2593 211.097 45.1098C211.13 45.0141 211.151 44.9154 211.163 44.8197C211.172 44.724 211.178 44.6254 211.178 44.5297C211.178 44.0811 211.064 43.7043 210.834 43.3963C210.604 43.0913 210.287 42.8491 209.877 42.6667V42.6518H209.874ZM201.22 42.4095C200.748 42.4215 200.374 42.6159 200.096 42.9956C199.818 43.3754 199.677 43.8479 199.677 44.416C199.677 44.5865 199.683 44.8227 199.692 45.1218C199.701 45.4208 199.74 45.7318 199.806 46.0517C199.901 46.5242 200.081 46.9578 200.344 47.3525C200.607 47.7473 201.017 47.9476 201.573 47.9476C202.033 47.9476 202.407 47.7532 202.697 47.3615C202.984 46.9698 203.131 46.4824 203.131 45.8933C203.131 45.6989 203.122 45.4955 203.107 45.2832C203.092 45.0679 203.062 44.8437 203.017 44.6074C202.922 44.0632 202.733 43.5608 202.455 43.1063C202.177 42.6518 201.764 42.4245 201.22 42.4245V42.4066V42.4095ZM198.266 45.349C198.266 44.3951 198.619 43.5459 199.324 42.7983C200.03 42.0477 200.843 41.6739 201.764 41.6739C202.685 41.6739 203.382 41.9999 203.861 42.6547C204.336 43.3066 204.575 44.0781 204.575 44.9663C204.575 45.9501 204.207 46.8203 203.475 47.5738C202.742 48.3274 201.932 48.7071 201.044 48.7071C200.156 48.7071 199.483 48.3842 198.998 47.7353C198.511 47.0894 198.269 46.2999 198.269 45.367V45.352L198.266 45.349ZM182.468 42.589C182.468 41.2373 182.901 40.1967 183.769 39.4731C184.636 38.7464 185.593 38.3188 186.642 38.1902C186.75 38.1812 186.858 38.1723 186.971 38.1663C187.085 38.1603 187.193 38.1573 187.3 38.1573L191.328 38.1424C191.244 38.2381 191.158 38.3367 191.071 38.4384C190.987 38.5401 190.901 38.6507 190.814 38.7673C190.428 39.3146 190.075 40.0651 189.755 41.0161C189.435 41.973 189.274 43.1212 189.274 44.4729V44.6971C189.295 46.2641 189.552 47.6934 190.045 48.9882C190.539 50.286 191.229 50.9349 192.115 50.9349C192.189 50.9349 192.384 50.8362 192.692 50.6389C193.003 50.4415 193.335 50.1275 193.688 49.6999C194.082 49.1976 194.45 48.5337 194.788 47.7084C195.126 46.886 195.293 45.8514 195.293 44.6104V44.4101C195.293 44.3413 195.287 44.2695 195.278 44.1918C195.216 43.3246 194.967 42.5292 194.54 41.8085C194.112 41.0848 193.577 40.726 192.934 40.726C192.913 40.726 192.892 40.726 192.868 40.735C192.847 40.7409 192.826 40.7439 192.805 40.7439C192.689 40.7858 192.569 40.8665 192.453 40.9862C192.336 41.1058 192.207 41.2433 192.067 41.4048C192.088 41.2882 192.115 41.1626 192.147 41.04C192.18 40.9174 192.222 40.7978 192.276 40.6752C192.417 40.3223 192.602 39.9784 192.838 39.6495C193.074 39.3205 193.314 39.0724 193.562 38.8989C193.67 38.8361 193.771 38.7853 193.867 38.7464C193.963 38.7075 194.055 38.6896 194.139 38.6896C194.309 38.6896 194.525 38.7703 194.782 38.9288C195.039 39.0903 195.311 39.3146 195.601 39.6046C196.041 40.0562 196.442 40.6423 196.806 41.3659C197.171 42.0926 197.351 42.897 197.351 43.7851C197.351 44.2067 197.285 44.6642 197.15 45.1696C197.016 45.672 196.827 46.1863 196.579 46.7126C196.11 47.7413 195.476 48.7042 194.683 49.5983C193.891 50.4954 193.069 51.0635 192.21 51.3117C192.082 51.3446 191.956 51.3715 191.834 51.3924C191.711 51.4134 191.585 51.4253 191.457 51.4253C190.066 51.4253 189.05 50.8751 188.416 49.7687C187.779 48.6653 187.408 47.4482 187.3 46.1175C187.279 45.9561 187.264 45.7946 187.258 45.6271C187.252 45.4597 187.249 45.2982 187.249 45.1367C187.249 43.818 187.474 42.6518 187.925 41.6321C188.377 40.6154 188.873 39.7242 189.417 38.9647C189.45 38.9109 189.486 38.8541 189.531 38.7972C189.573 38.7374 189.618 38.6836 189.66 38.6298L187.507 38.6118C186.373 38.6238 185.383 38.9228 184.543 39.5089C183.703 40.095 183.284 40.8964 183.284 41.9191C183.284 42.272 183.344 42.6817 183.461 43.1482C183.577 43.6146 183.813 44.0871 184.166 44.5686C184.391 44.8795 184.669 45.1846 185.001 45.4836C185.333 45.7826 185.739 46.0727 186.221 46.3508C185.141 46.297 184.244 45.9291 183.532 45.2503C182.821 44.5715 182.465 43.6894 182.465 42.6099V42.5949L182.468 42.589Z" fill="#2E3191"/>
<path d="M237.222 16.9979C237.53 17.0248 237.82 17.0607 238.09 17.1145C238.359 17.1683 238.625 17.2161 238.882 17.27C238.933 17.27 238.984 17.276 239.038 17.2909C239.088 17.3029 239.139 17.3238 239.193 17.3477C239.399 17.3986 239.597 17.4374 239.791 17.4643C239.985 17.4913 240.198 17.5032 240.428 17.5032C240.712 17.5032 241.032 17.4584 241.394 17.3687C241.753 17.2789 242.153 17.1414 242.59 16.962C242.1 17.7095 241.768 18.4153 241.585 19.0851C241.406 19.7549 241.262 20.2962 241.161 20.7058C241.134 20.7567 241.116 20.8015 241.104 20.8404C241.092 20.8793 241.086 20.9122 241.086 20.9361C240.751 20.5743 240.431 20.2543 240.12 19.9702C239.812 19.6861 239.516 19.4559 239.232 19.2765C238.768 18.9924 238.305 18.795 237.841 18.6784C237.378 18.5618 236.852 18.505 236.26 18.505C235.255 18.505 234.573 18.6904 234.214 19.0642C233.852 19.438 233.673 19.8686 233.673 20.356C233.673 20.7686 233.873 21.1215 234.271 21.4175C234.669 21.7136 235.177 21.9887 235.796 22.2459C236.182 22.4014 236.579 22.5598 236.992 22.7273C237.405 22.8948 237.829 23.0682 238.266 23.2476C239.399 23.7619 240.44 24.4318 241.394 25.2541C242.345 26.0765 242.823 27.2487 242.823 28.7677C242.823 30.5948 242.315 31.8507 241.298 32.5325C240.281 33.2143 239.169 33.621 237.958 33.7496C237.65 33.7765 237.333 33.7945 237.013 33.8064C236.693 33.8184 236.376 33.8273 236.068 33.8273C234.112 33.8273 232.866 33.4745 232.324 32.7658C231.783 32.0571 231.502 30.2629 231.475 27.3802C231.553 27.6105 231.648 27.8497 231.765 28.0949C231.882 28.3401 232.004 28.5763 232.133 28.8096C232.674 29.7605 233.419 30.6367 234.373 31.4351C235.324 32.2335 236.484 32.6312 237.847 32.6312C238.774 32.6312 239.45 32.4309 239.875 32.0332C240.299 31.6354 240.512 31.0344 240.512 30.239C240.512 29.6977 240.282 29.2611 239.818 28.9262C239.355 28.5913 238.789 28.2713 238.12 27.9603C237.812 27.8318 237.483 27.6912 237.136 27.5357C236.789 27.3802 236.448 27.2277 236.113 27.0722C235.007 26.5579 233.996 25.8821 233.084 25.0448C232.172 24.2075 231.714 22.9665 231.714 21.3189C231.714 19.5426 232.285 18.3854 233.431 17.8441C234.576 17.3029 235.844 17.0337 237.234 17.0337V16.9949L237.222 16.9979ZM222.516 19.5456C221.562 19.5456 220.844 20.0988 220.354 21.2052C219.867 22.3116 219.621 23.5466 219.621 24.9102C219.621 25.5023 219.666 26.0944 219.756 26.6865C219.846 27.2786 219.98 27.8318 220.163 28.3461C220.369 28.1398 220.683 27.8437 221.108 27.458C221.532 27.0722 221.978 26.6356 222.438 26.1452C222.645 25.9658 222.842 25.7655 223.036 25.5472C223.231 25.3289 223.404 25.1166 223.557 24.9102C223.942 24.4467 224.265 23.9982 224.523 23.5586C224.78 23.122 224.908 22.7363 224.908 22.4014C224.908 22.2459 224.896 22.0545 224.869 21.8212C224.843 21.591 224.792 21.3577 224.714 21.1275C224.585 20.7148 224.352 20.35 224.02 20.027C223.685 19.7041 223.183 19.5456 222.516 19.5456ZM215.991 26.9586C215.991 23.9234 216.858 21.5222 218.596 19.7579C220.333 17.9966 222.372 17.1145 224.714 17.1145C225.177 17.1145 225.602 17.1534 225.988 17.2311C226.374 17.3088 226.747 17.4494 227.106 17.6557C227.519 17.8621 227.943 18.1431 228.38 18.505C228.817 18.8668 229.319 19.3273 229.884 19.8955L220.504 29.2372C220.812 29.7785 221.173 30.1821 221.583 30.4543C221.996 30.7264 222.405 30.9237 222.818 31.0523C223.204 31.154 223.584 31.2198 223.957 31.2467C224.331 31.2736 224.672 31.2856 224.98 31.2856C225.136 31.2856 225.282 31.2796 225.423 31.2646C225.563 31.2527 225.713 31.2318 225.868 31.2078C226.305 31.1032 226.729 30.9686 227.142 30.8011C227.555 30.6337 227.94 30.4483 228.299 30.242C228.787 30.0117 229.181 29.7844 229.477 29.5661C229.774 29.3479 229.923 29.2372 229.923 29.2372C228.918 30.7802 227.794 31.9464 226.544 32.7299C225.297 33.5163 223.874 33.9081 222.28 33.9081C220.53 33.9081 219.203 33.4775 218.303 32.6133C217.403 31.7521 216.784 30.7922 216.449 29.7366C216.269 29.2492 216.147 28.7647 216.081 28.2893C216.015 27.8138 215.985 27.3832 215.985 26.9945V26.9556L215.991 26.9586ZM200.319 26.9586C200.319 23.9982 201.168 21.6239 202.867 19.8357C204.565 18.0475 206.751 17.1534 209.43 17.1534C209.688 17.1534 209.984 17.1862 210.319 17.249C210.653 17.3118 211 17.4105 211.362 17.5391C212.083 17.7963 212.747 18.182 213.351 18.6964C213.955 19.2107 214.257 19.8297 214.257 20.5503C214.257 20.6789 214.152 20.8793 213.949 21.1484C213.742 21.4175 213.497 21.7076 213.216 22.0156C213.111 22.1173 213.004 22.2279 212.887 22.3445C212.771 22.4612 212.663 22.5718 212.558 22.6735C212.352 22.829 212.167 22.9755 211.999 23.116C211.832 23.2566 211.67 23.3672 211.518 23.445C211.338 22.518 210.92 21.7405 210.262 21.1095C209.607 20.4786 208.904 20.036 208.16 19.7788C207.929 19.7011 207.696 19.6443 207.466 19.6054C207.236 19.5665 207.014 19.5486 206.811 19.5486C205.806 19.5486 205.017 20.0749 204.437 21.1305C203.856 22.1861 203.569 23.3941 203.569 24.7577C203.569 26.842 203.961 28.367 204.748 29.3329C205.534 30.2988 206.401 30.9357 207.352 31.2437C207.66 31.3454 207.977 31.4172 208.297 31.456C208.62 31.4949 208.922 31.5128 209.203 31.5128C209.433 31.5128 209.667 31.4859 209.897 31.4351C210.127 31.3843 210.36 31.3185 210.591 31.2407C210.976 31.1121 211.35 30.9507 211.709 30.7593C212.068 30.5649 212.403 30.3675 212.714 30.1612C212.842 30.0835 212.971 30.0057 213.1 29.931C213.228 29.8532 213.345 29.7755 213.446 29.7007C213.267 29.9579 213.094 30.2091 212.926 30.4543C212.759 30.6995 212.597 30.9237 212.445 31.1301C211.646 32.1348 210.785 32.8465 209.858 33.2741C208.931 33.6988 207.696 33.9111 206.153 33.9111C204.224 33.9111 202.858 33.4805 202.062 32.6163C201.264 31.7551 200.761 30.7952 200.558 29.7396C200.456 29.2522 200.391 28.7677 200.364 28.2923C200.337 27.8168 200.325 27.3862 200.325 26.9975V26.9586H200.319ZM196.653 23.3672V25.4515C196.626 25.7356 196.614 26.0436 196.614 26.3785V30.0835C196.614 30.9058 196.626 31.3304 196.653 31.3573C196.653 31.6414 196.71 31.8537 196.826 31.9943C196.943 32.1348 197.089 32.2066 197.272 32.2066C197.502 32.2066 197.792 32.096 198.139 31.8777C198.486 31.6594 198.893 31.3424 199.356 30.9327C199.072 31.474 198.758 31.9375 198.411 32.3232C198.064 32.709 197.711 33.0319 197.35 33.2891C196.964 33.5193 196.596 33.6958 196.249 33.8094C195.902 33.926 195.585 33.9828 195.304 33.9828C194.661 33.9828 194.114 33.7765 193.662 33.3638C193.211 32.9512 192.987 32.3083 192.987 31.4351L193.026 22.7123V22.2877C193.026 22.186 193.014 22.0814 192.987 21.9797C192.96 21.6956 192.864 21.4325 192.697 21.1873C192.529 20.9421 192.215 20.8195 191.752 20.8195C191.521 20.8195 191.276 20.8972 191.019 21.0497C190.762 21.2052 190.505 21.4116 190.248 21.6687C190.041 21.8751 189.835 22.0934 189.629 22.3236C189.422 22.5539 189.231 22.7871 189.048 23.0174C188.636 23.5586 188.295 24.052 188.026 24.5035C187.757 24.9551 187.622 25.1913 187.622 25.2182V31.782C187.595 31.8328 187.571 31.8926 187.544 31.9554C187.517 32.0212 187.493 32.078 187.467 32.1288C187.236 32.5415 186.857 32.9153 186.327 33.2472C185.798 33.5821 185.239 33.8004 184.647 33.9021C184.545 33.929 184.44 33.947 184.339 33.9589C184.237 33.9709 184.132 33.9799 184.031 33.9799V20.8165C184.031 20.6371 183.992 20.4876 183.914 20.3859C183.836 20.2842 183.72 20.2304 183.567 20.2304C183.361 20.2304 183.086 20.3141 182.736 20.4816C182.389 20.655 181.943 20.9182 181.405 21.28C182.356 20.0061 183.244 19.0223 184.07 18.3196C184.892 17.6169 185.523 17.264 185.962 17.264C186.812 17.264 187.299 17.8232 187.431 18.9445C187.559 20.0629 187.625 21.3189 187.625 22.7094V23.5197C187.754 23.3134 188.011 22.9157 188.397 22.3236C188.782 21.7315 189.234 21.1125 189.748 20.4696C190.289 19.7998 190.893 19.1628 191.563 18.5588C192.233 17.9548 192.915 17.563 193.609 17.3806C193.737 17.3298 193.86 17.2969 193.976 17.2849C194.093 17.273 194.216 17.264 194.344 17.264C195.4 17.264 196.055 17.6438 196.312 18.4033C196.569 19.1628 196.698 20.0809 196.698 21.1634V22.2817C196.671 22.4612 196.659 22.6436 196.659 22.823V23.4031V23.3642L196.653 23.3672ZM175.73 18.3106C173.801 18.3375 172.282 19.0193 171.175 20.356C170.069 21.6926 169.45 23.1609 169.321 24.7577C169.294 24.8594 169.282 24.9641 169.282 25.0657V25.3737C169.282 26.7104 169.507 27.6583 169.958 28.2115C170.41 28.7647 170.969 29.0279 171.639 29.004C171.947 29.004 172.276 28.9531 172.623 28.8485C172.969 28.7468 173.325 28.6033 173.684 28.4238C174.046 28.2444 174.399 28.0261 174.746 27.769C175.093 27.5118 175.422 27.2427 175.73 26.9586V18.3106ZM175.999 17.2311H179.357V31.5128C179.384 31.7192 179.441 31.8597 179.53 31.9375C179.62 32.0152 179.731 32.0391 179.859 32.0152C180.116 32.0152 180.451 31.9046 180.864 31.6863C181.277 31.468 181.74 31.2168 182.254 30.9327C182.177 31.0882 182.087 31.2467 181.985 31.4142C181.881 31.5816 181.767 31.7431 181.638 31.8956C181.33 32.2814 180.957 32.6551 180.52 33.014C180.083 33.3758 179.632 33.633 179.168 33.7855C179.013 33.8363 178.866 33.8752 178.726 33.9021C178.585 33.929 178.448 33.941 178.319 33.941C178.217 33.941 178.05 33.9021 177.817 33.8244C177.584 33.7466 177.341 33.618 177.084 33.4386C176.749 33.1814 176.441 32.8405 176.157 32.4159C175.873 31.9913 175.733 31.471 175.733 30.852V28.7289C175.526 28.9591 175.191 29.315 174.728 29.7904C174.264 30.2659 173.75 30.7623 173.185 31.2766C172.978 31.4829 172.772 31.6743 172.566 31.8567C172.359 32.0361 172.141 32.2036 171.911 32.3591C171.37 32.8226 170.837 33.2024 170.308 33.4984C169.779 33.7945 169.324 33.941 168.939 33.941H168.783C168.732 33.941 168.681 33.929 168.628 33.9021C167.856 33.7974 167.153 33.2652 166.525 32.2993C165.894 31.3334 165.58 30.0027 165.58 28.3042C165.58 24.7009 166.576 21.9618 168.571 20.0809C170.565 18.203 173.044 17.264 176.002 17.264V17.2251L175.999 17.2311ZM148.515 21.4773C148.67 21.271 148.838 21.0198 149.017 20.7238C149.196 20.4277 149.415 20.1257 149.672 19.8177C149.878 19.5875 150.079 19.3602 150.27 19.1419C150.464 18.9236 150.674 18.7113 150.907 18.505C151.32 18.0923 151.723 17.7514 152.124 17.4823C152.522 17.2132 152.839 17.0756 153.069 17.0756C153.918 17.0756 154.415 17.5391 154.555 18.4661C154.696 19.3931 154.752 20.667 154.729 22.2877V23.4061C154.959 23.0981 155.198 22.7632 155.443 22.4014C155.688 22.0395 155.94 21.6807 156.197 21.3218C156.944 20.2663 157.734 19.2944 158.571 18.4063C159.408 17.5182 160.365 17.0756 161.448 17.0756C162.195 17.0756 162.755 17.3388 163.128 17.868C163.502 18.3973 163.688 18.9954 163.688 19.6622C163.688 20.1257 163.52 20.6341 163.185 21.1873C162.85 21.7405 162.441 22.2997 161.95 22.8649C161.744 23.122 161.52 23.3792 161.274 23.6364C161.029 23.8935 160.778 24.1387 160.521 24.369C160.314 24.5753 160.108 24.7816 159.902 24.988C159.695 25.1943 159.504 25.3857 159.322 25.5681C159.349 25.5173 159.373 25.4575 159.399 25.3947C159.426 25.3289 159.45 25.2601 159.477 25.1823C159.555 24.9521 159.633 24.674 159.707 24.354C159.785 24.0311 159.848 23.7021 159.902 23.3702C159.902 23.2416 159.908 23.119 159.923 23.0024C159.935 22.8858 159.941 22.7632 159.941 22.6346C159.941 22.1203 159.851 21.6747 159.672 21.3039C159.492 20.9301 159.157 20.7447 158.667 20.7447C158.46 20.7447 158.203 20.8613 157.895 21.0916C157.587 21.3218 157.276 21.6059 156.968 21.9408C156.84 22.0694 156.717 22.204 156.6 22.3445C156.484 22.4851 156.361 22.6226 156.233 22.7512C155.82 23.2416 155.467 23.6962 155.171 24.1208C154.875 24.5454 154.726 24.7577 154.726 24.7577V31.9375C154.726 31.9644 154.609 32.084 154.379 32.3053C154.148 32.5236 153.852 32.7628 153.491 33.02C153.156 33.2502 152.788 33.4565 152.39 33.639C151.992 33.8184 151.574 33.935 151.134 33.9858V21.2082C151.134 21.0288 151.071 20.8554 150.94 20.6879C150.811 20.5204 150.62 20.4367 150.36 20.4367C150.129 20.4367 149.857 20.5204 149.549 20.6879C149.241 20.8554 148.906 21.1305 148.545 21.5162L148.506 21.4773H148.515ZM130.953 21.4773C131.108 21.271 131.273 21.0198 131.455 20.7238C131.634 20.4277 131.853 20.1257 132.11 19.8177C132.316 19.5875 132.513 19.3602 132.708 19.1419C132.902 18.9236 133.115 18.7113 133.345 18.505C133.757 18.0923 134.161 17.7514 134.562 17.4823C134.96 17.2132 135.277 17.0756 135.507 17.0756C136.356 17.0756 136.852 17.5391 136.993 18.4661C137.134 19.3931 137.193 20.667 137.166 22.2877V23.4061C137.397 23.0981 137.636 22.7632 137.881 22.4014C138.126 22.0395 138.377 21.6807 138.635 21.3218C139.379 20.2663 140.172 19.2944 141.009 18.4063C141.846 17.5182 142.803 17.0756 143.886 17.0756C144.63 17.0756 145.192 17.3388 145.563 17.868C145.937 18.3973 146.122 18.9954 146.122 19.6622C146.122 20.1257 145.955 20.6341 145.62 21.1873C145.285 21.7405 144.875 22.2997 144.385 22.8649C144.179 23.122 143.954 23.3792 143.709 23.6364C143.464 23.8935 143.213 24.1387 142.956 24.369C142.749 24.5753 142.543 24.7816 142.337 24.988C142.13 25.1943 141.939 25.3857 141.757 25.5681C141.783 25.5173 141.807 25.4575 141.834 25.3947C141.861 25.3289 141.885 25.2601 141.912 25.1823C141.99 24.9521 142.068 24.674 142.142 24.354C142.22 24.0311 142.283 23.7021 142.337 23.3702C142.337 23.2416 142.343 23.119 142.355 23.0024C142.367 22.8858 142.376 22.7632 142.376 22.6346C142.376 22.1203 142.286 21.6747 142.106 21.3039C141.927 20.9301 141.592 20.7447 141.102 20.7447C140.895 20.7447 140.638 20.8613 140.33 21.0916C140.022 21.3218 139.714 21.6059 139.403 21.9408C139.275 22.0694 139.152 22.204 139.035 22.3445C138.919 22.4851 138.796 22.6226 138.668 22.7512C138.255 23.2416 137.902 23.6962 137.606 24.1208C137.31 24.5454 137.163 24.7577 137.163 24.7577V31.9375C137.163 31.9644 137.047 32.084 136.817 32.3053C136.586 32.5236 136.287 32.7628 135.928 33.02C135.594 33.2502 135.226 33.4565 134.828 33.639C134.43 33.8184 134.012 33.935 133.575 33.9858V21.2082C133.575 21.0288 133.509 20.8554 133.381 20.6879C133.252 20.5204 133.058 20.4367 132.801 20.4367C132.57 20.4367 132.298 20.5204 131.99 20.6879C131.682 20.8554 131.347 21.1305 130.985 21.5162L130.947 21.4773H130.953ZM99.7217 18.8489C99.7217 15.7987 100.756 13.3347 102.829 11.4508C104.901 9.56692 108.729 8.619 114.311 8.619L114.93 8V8.58012C114.93 8.60703 115.708 8.619 117.266 8.619H128.713C128.74 9.16024 128.829 9.64766 128.982 10.0723C129.137 10.5029 129.329 10.9335 129.562 11.3731C129.691 11.6572 129.837 11.9532 130.005 12.2492C130.172 12.5453 130.346 12.8473 130.525 13.1613C130.731 13.547 130.938 13.9657 131.144 14.4232C131.35 14.8747 131.53 15.3891 131.685 15.9542C131.377 15.6971 130.982 15.2904 130.507 14.7521C130.032 14.2049 129.457 13.6248 128.791 13.0028C127.89 12.1984 126.79 11.4718 125.489 10.8079C124.188 10.147 122.628 9.81811 120.8 9.81811L114.895 9.77924V21.899C115.125 21.6418 115.382 21.3458 115.666 21.0109C115.95 20.6759 116.246 20.3291 116.554 19.9672C117.353 19.118 118.304 18.3465 119.41 17.6497C120.516 16.956 121.802 16.6061 123.27 16.6061C124.275 16.6061 125.047 16.8962 125.588 17.4763C126.129 18.0534 126.398 18.795 126.398 19.6951C126.398 20.1078 126.333 20.5444 126.204 21.0079C126.075 21.4714 125.869 21.9468 125.585 22.4372C125.636 22.1023 125.669 21.8003 125.681 21.5312C125.693 21.262 125.702 21.0109 125.702 20.7776C125.702 19.5934 125.483 18.8728 125.047 18.6156C124.61 18.3584 124.12 18.2299 123.578 18.2299C123.193 18.2299 122.619 18.4153 121.859 18.7891C121.099 19.1628 120.295 19.7101 119.446 20.4307C118.312 21.4355 117.272 22.7542 116.318 24.3869C115.364 26.0196 114.889 27.9454 114.889 30.1582C114.889 32.3711 115.274 33.6958 116.046 34.0576C116.817 34.4194 118.157 34.5988 120.062 34.5988H120.331C122.852 34.5988 125.086 34.0187 127.029 32.8615C128.973 31.7042 130.498 29.9908 131.604 27.7271C131.604 27.7779 131.598 27.8288 131.584 27.8826C131.572 27.9334 131.566 27.9843 131.566 28.0381C131.461 28.8365 131.264 29.6319 130.967 30.4303C130.671 31.2288 130.357 31.9883 130.023 32.709C129.765 33.2741 129.52 33.7974 129.29 34.2729C129.06 34.7484 128.865 35.179 128.71 35.5677H106.247C106.402 35.49 106.644 35.3674 106.979 35.1999C107.314 35.0324 107.673 34.8201 108.059 34.563C108.546 34.2011 108.998 33.7705 109.41 33.2711C109.823 32.7688 110.029 32.1587 110.029 31.4381V17.8501C110.029 17.5152 110.041 17.1952 110.068 16.8782C110.095 16.5702 110.131 16.2592 110.185 15.9512C110.34 15.1977 110.621 14.3813 111.034 13.5082C111.447 12.626 112.078 11.397 112.927 9.8211C108.681 9.8211 105.741 10.4401 104.105 11.6811C102.473 12.9221 101.653 14.9943 101.653 17.889C101.653 21.0019 102.201 23.2805 103.295 24.7218C104.39 26.1632 105.888 27.4251 107.793 28.5046C104.704 28.5046 102.619 27.6165 101.54 25.8402C100.46 24.064 99.8682 22.1083 99.7635 19.9732C99.7366 19.7938 99.7247 19.6114 99.7247 19.432V18.8518L99.7217 18.8489Z" fill="#EC1C24"/>
</svg>
