<svg width="32" height="30" viewBox="0 0 32 30" fill="none" xmlns="http://www.w3.org/2000/svg">
<path d="M21.1932 1.64821C20.6344 0.630072 19.5931 0 18.4755 0H13.513C12.3953 0 11.354 0.631504 10.7952 1.64821L0.419107 20.5303C-0.139702 21.547 -0.139702 22.81 0.419107 23.8267L2.90921 28.3504C3.46939 29.3671 4.51068 29.9986 5.6283 29.9986H9.95293C11.0706 29.9986 12.1118 29.3671 12.6707 28.3504L13.9954 25.9389C14.2926 25.4005 14.4479 24.7847 14.4479 24.1632V19.2172C14.4479 18.8234 14.0213 18.5986 13.7201 18.832L6.49377 24.1246C6.29887 24.2764 6.02355 24.2162 5.90089 23.9971L5.05858 22.4835C4.92501 22.243 4.96318 21.9351 5.15263 21.7389L13.8033 13.1255C14.2149 12.6988 14.4493 12.1131 14.4493 11.506V7.68544C14.4493 6.9179 14.9713 5.1222 15.6637 4.71265C15.8518 4.60095 16.0971 4.60382 16.2566 4.67255C16.9871 4.98616 17.55 6.88926 17.55 7.68544V11.506C17.55 12.1131 17.7831 12.6988 18.196 13.1255L26.2075 21.7389C26.3969 21.9351 26.4351 22.243 26.3015 22.4835L25.4592 23.9971C25.3365 24.2162 25.0612 24.2764 24.8663 24.1246L18.2792 18.832C17.978 18.5971 17.5514 18.8234 17.5514 19.2172V24.1632C17.5514 24.7862 17.7081 25.399 18.0039 25.9389L19.3287 28.3518C19.8875 29.3685 20.9288 30 22.0464 30H26.3397C27.4586 30 28.5013 29.3714 29.0669 28.3575L31.5748 23.8525C32.139 22.8387 32.1417 21.5771 31.5829 20.5604L21.1932 1.64821Z" fill="white"/>
</svg>
