<svg width="82" height="47" viewBox="0 0 82 47" fill="none" xmlns="http://www.w3.org/2000/svg">
<path fill-rule="evenodd" clip-rule="evenodd" d="M21.6061 36.3747C24.331 38.9594 25.1173 34.7971 25.8097 32.8206C27.562 27.8143 31.4392 16.8125 33.775 10.8237L34.9421 13.964L41.1799 30.7485L47.4176 13.964L48.5847 10.8237C50.9206 16.8125 54.7994 27.8143 56.5517 32.8206C57.2424 34.7971 58.0303 38.9594 60.7552 36.3747C59.9722 33.874 47.6121 0.75 47.6121 0.75L41.1799 17.7851L34.7476 0.75C34.7476 0.75 22.3875 33.8723 21.6045 36.3747" fill="#2E3191"/>
<path d="M64.4235 24.5783C64.7004 24.6706 64.8867 24.6707 65.1637 24.763H65.6269C66.0901 24.8553 66.8302 25.0399 67.4781 25.0399L68.96 25.2245C68.96 25.2245 68.7754 25.3168 68.6831 25.3168L68.5908 25.4092C68.4985 25.5938 68.0353 25.7801 67.8506 25.8724L67.3874 26.1493C67.2951 26.2416 67.2951 26.3339 67.2028 26.3339L66.5549 26.7048C66.4626 26.7048 66.4626 26.7972 66.3703 26.7972C66.3088 26.8587 66.2472 26.8895 66.1857 26.8895L64.4268 28.0928C64.2422 28.2775 63.779 27.9082 63.5004 27.7219L63.1295 27.445C63.0679 27.445 63.0064 27.4142 62.9448 27.3527C62.7602 27.3527 62.4816 27.2604 62.2047 27.3527C61.9277 27.3527 61.9277 27.445 62.0201 27.5373C62.2047 27.7219 62.4833 28.0928 62.7602 28.2775V28.3698L63.0371 28.6467C63.1295 28.739 63.3141 28.9236 63.4081 29.0176L63.2234 29.2946C63.1311 29.3869 62.6679 29.7578 62.8525 29.7578C62.9448 29.7578 62.9448 29.6655 62.9448 29.6655H63.1295C63.3141 29.4808 63.685 29.4808 63.8696 29.3885C64.0542 29.2962 64.5175 29.2039 64.7021 29.0176H64.8867L65.5346 28.7407C65.6269 28.6484 65.7192 28.6484 65.8115 28.556L66.5517 28.1851C66.7363 28.0928 67.1995 27.9082 67.4781 27.7219L69.4216 26.7955V26.9801L69.237 27.1648C69.237 27.2571 69.1447 27.3494 69.1447 27.3494L68.7738 27.9049C68.7738 27.9049 68.6814 27.9972 68.6814 28.0895L68.0336 29.016L67.849 29.4792C67.849 29.6638 68.5891 29.4792 68.7754 29.4792L68.8677 29.3869C68.96 29.3869 69.2386 29.2022 69.3309 29.016C69.4233 28.9237 69.5156 28.8313 69.6079 28.739L69.9788 28.2758V28.1835H70.0711C70.1634 28.0912 70.1634 27.9989 70.2557 27.9066C70.2557 27.8142 70.348 27.9066 70.348 27.8142C70.348 27.7219 70.5327 27.6296 70.5327 27.5373C70.625 27.445 70.7173 27.2604 70.9036 27.1664C70.9036 27.0741 70.9959 27.0741 70.9959 26.9818L71.3668 26.5186L71.4591 26.3339H71.5514V26.2416H71.6437C71.6437 26.1493 71.736 26.1493 71.736 26.1493L71.8283 26.057C71.8283 25.8724 71.9207 25.8724 71.9207 25.8724H72.013C72.013 25.7801 71.9207 25.7801 72.013 25.6877C72.1053 25.5954 72.1053 25.6877 72.1053 25.5954C72.1976 25.5031 72.2899 25.5031 72.4762 25.4108L74.2351 24.3921L74.3274 24.2997C74.512 24.2074 74.6043 24.1151 74.7906 23.9288L74.8829 23.8365C74.9752 23.7442 75.0676 23.7442 75.0676 23.6519C75.2522 23.375 75.1599 23.6519 75.2522 23.375C75.3445 23.2827 76.2709 22.1716 75.0676 22.1716C74.6967 22.1716 74.4197 22.2639 74.0488 22.3562L73.3087 22.6332C73.2471 22.6947 73.1856 22.7255 73.124 22.7255L72.7531 22.9101H72.6608C72.6608 23.0024 72.6608 22.9101 72.5685 23.0024L72.2916 23.187C72.1069 23.187 71.4591 23.6503 71.3651 23.7426C71.0882 23.8349 70.8096 23.7426 70.5327 23.7426C70.348 23.7426 70.348 23.8349 70.1618 23.8349H67.755C67.6627 23.8349 67.5704 23.9272 67.3841 23.9272H65.8098L65.2543 24.0195C65.162 24.0195 65.2543 24.0195 65.162 24.1118C64.9774 24.1118 64.7911 24.2041 64.6065 24.2965C64.5142 24.3888 64.4218 24.4811 64.4218 24.5734L64.4235 24.5783Z" stroke="white" stroke-width="0.46" stroke-miterlimit="2.61"/>
<path fill-rule="evenodd" clip-rule="evenodd" d="M64.4304 24.5635C64.7452 24.6426 64.8771 24.6937 65.192 24.7465L65.6123 24.7992C66.059 24.8256 66.8717 24.9822 67.4487 25.0086L68.9702 25.1668C68.9175 25.2196 68.7609 25.3251 68.6817 25.3498L68.629 25.3762C68.4707 25.5592 68.0784 25.7438 67.8674 25.9004L67.3696 26.1889C67.2904 26.2416 67.2641 26.2944 67.1849 26.3471L66.5816 26.7147C66.4761 26.7411 66.5025 26.7675 66.397 26.8202C66.3179 26.8994 66.3179 26.873 66.214 26.9241L64.4024 28.1307C64.193 28.2626 63.8254 27.9214 63.5369 27.7368L63.1166 27.4747C63.0638 27.4219 63.0374 27.3955 62.9583 27.3692C62.7226 27.3164 62.4605 27.2389 62.1703 27.29C61.961 27.3164 61.9082 27.3955 62.0137 27.4994C62.2495 27.7087 62.5116 28.05 62.7226 28.2873L62.8017 28.3665V28.3929L63.0111 28.6022C63.1429 28.7605 63.2995 28.8907 63.3787 29.0489L63.1957 29.2583C63.1166 29.3902 62.6698 29.7561 62.8545 29.705C62.9336 29.705 62.9072 29.6786 62.96 29.6523L63.1446 29.6259C63.3539 29.494 63.6424 29.4413 63.8798 29.3638C64.0891 29.2583 64.5623 29.1544 64.7452 29.0489C64.7804 29.0313 64.8244 29.0138 64.8771 28.9962L65.5596 28.6813C65.6387 28.6286 65.7178 28.6022 65.7953 28.5495L66.5569 28.2082C66.7662 28.0516 67.1866 27.867 67.4487 27.7368L69.4169 26.7922C69.4697 26.9224 69.3906 26.9505 69.3906 26.9505L69.2603 27.1334L69.234 27.1862C69.2076 27.2389 69.1548 27.3164 69.1285 27.3692L68.7872 27.867C68.7609 27.9197 68.7081 27.9725 68.6817 28.0516L68.0784 28.9698C68.0256 29.0489 68.1048 28.9434 68.052 29.0226L67.8938 29.4429C67.8938 29.6275 68.629 29.522 68.7328 29.4693L68.8911 29.4165C68.9966 29.3902 69.2323 29.1544 69.3625 29.0226C69.468 28.9171 69.5208 28.7868 69.6246 28.6813L69.9659 28.261C69.9835 28.2434 70.001 28.2258 70.0186 28.2082C70.0186 28.1906 70.0274 28.1818 70.045 28.1818C70.1241 28.0763 70.2033 27.9461 70.2807 27.867C70.3071 27.8406 70.3335 27.867 70.3335 27.8142C70.3862 27.7104 70.4917 27.6049 70.5428 27.4994C70.6483 27.3939 70.7258 27.2637 70.8577 27.1845L70.8841 27.1582V27.1318C70.9368 27.0263 70.9632 27.0527 71.0143 26.9488L71.3819 26.5021H71.4083L71.5138 26.3438C71.5314 26.3262 71.5489 26.3087 71.5665 26.2911L71.5929 26.2383L71.6193 26.212C71.672 26.1592 71.6984 26.1856 71.6984 26.1328L71.8039 26.0026C71.8567 25.8971 71.9341 25.8443 71.9622 25.8196H71.9885C72.0413 25.7932 71.9622 25.7669 72.0677 25.6614C72.1204 25.6086 72.094 25.6614 72.1204 25.6086C72.2259 25.4504 72.2506 25.4767 72.4616 25.3729L74.2205 24.3492H74.2469L74.326 24.2701C74.4843 24.1646 74.6409 24.0607 74.7728 23.9025L74.903 23.7722C74.9821 23.7195 75.0612 23.6931 75.086 23.614L75.1123 23.5876C75.2426 23.3783 75.1915 23.5876 75.2953 23.3783C75.3481 23.248 76.2663 22.1716 75.086 22.1716C74.692 22.1716 74.4035 22.2771 74.0623 22.381L73.3007 22.6431C73.2479 22.6694 73.2216 22.6958 73.1705 22.7222L72.7501 22.8804H72.7237L72.6974 22.9068V22.9332C72.6446 22.9859 72.6974 22.9332 72.6182 22.9596L72.3034 23.1425C72.1451 23.2217 71.4891 23.6684 71.3324 23.7195C71.0967 23.7722 70.7819 23.7459 70.5709 23.7459C70.3879 23.7459 70.3351 23.7722 70.1769 23.7722C69.3889 23.7722 68.5762 23.8514 67.7883 23.8514C67.63 23.8514 67.5789 23.8777 67.3943 23.8777C66.8701 23.8777 66.3179 23.9041 65.7936 23.9305L65.2694 24.0096C65.2167 24.0096 65.2694 24.0096 65.1903 24.0624C64.981 24.1415 64.7963 24.2206 64.6134 24.3245C64.5342 24.4036 64.4551 24.4547 64.4304 24.5602" fill="#2E3191"/>
<path d="M66.0817 29.6885C64.2304 31.1705 60.1571 34.4097 57.8427 35.6131C57.7504 35.6131 57.7504 35.7054 57.5658 35.7977C57.4734 35.89 57.2888 36.0746 57.1025 36.0746C57.1641 36.1362 57.3185 36.1054 57.5658 35.9823V35.89H57.6581C57.7504 35.7977 62.8424 32.8354 63.0271 32.8354C64.2304 32.1876 65.4338 31.3535 66.7295 30.6133L66.0817 29.6869V29.6885Z" stroke="white" stroke-width="0.46" stroke-miterlimit="2.61"/>
<path fill-rule="evenodd" clip-rule="evenodd" d="M66.0832 29.6803C64.2205 31.1491 60.1521 34.4031 57.869 35.585C57.7651 35.6378 57.7124 35.7153 57.5805 35.7944C57.4503 35.8735 57.292 36.0565 57.1338 36.0829C57.2129 36.162 57.1602 36.1356 57.5278 35.9246L57.5541 35.8983L57.6596 35.8455H57.686C57.7915 35.7664 62.8819 32.8008 63.0138 32.7761C64.2732 32.1464 65.4535 31.332 66.7393 30.6249L66.0832 29.6803Z" fill="#2E3191"/>
<path d="M61.3052 30.6414C61.2129 30.5491 61.2129 30.4567 61.1206 30.3644C61.0283 30.2721 61.0283 30.1798 60.936 30.1798L60.8437 29.9029H60.7514L60.659 29.7182C60.4744 29.8105 60.2881 29.9952 60.0112 30.0891C59.9189 30.2738 59.7343 30.3661 59.548 30.46L59.3634 30.5523C59.271 30.737 59.0864 30.8293 58.9001 30.9232L58.8078 31.0156H58.7155V31.1079L58.5309 31.2002L58.4386 31.2925C58.3463 31.3848 58.4386 31.2925 58.3463 31.2925C58.254 31.3848 58.3463 31.2925 58.3463 31.3848C58.1616 31.4771 57.9754 31.5694 57.8831 31.7557H57.6984C57.6984 31.9403 57.4215 32.0327 57.3275 32.0327C57.2352 32.125 57.2352 32.2173 57.1429 32.2173C57.0506 32.3096 57.0506 32.2173 56.9583 32.3096V32.4019H56.866L56.589 32.5865C56.4967 32.6789 56.4044 32.6789 56.4044 32.6789C56.3121 32.7712 56.4044 32.7712 56.3121 32.7712L56.2198 32.8635H56.1274C56.1274 32.9558 55.7565 33.1404 55.7565 33.2344L54.8301 33.8822C54.7378 33.8822 54.6455 33.9745 54.6455 33.9745C54.5839 34.0361 54.5224 34.0976 54.4609 34.1592L54.1839 34.3438C53.9993 34.4361 53.907 34.6207 53.7207 34.6207L53.6284 34.713C53.6284 34.8054 53.4438 34.8977 53.3515 34.8977L53.2591 34.99L52.8882 35.2669C52.7036 35.3592 52.5173 35.5439 52.425 35.6378C52.3327 35.7301 52.3327 35.6378 52.2404 35.7301C52.2404 35.7301 52.1481 35.8224 52.0558 35.9148L51.8711 36.0071H51.7788L51.6865 36.0994L54.7411 34.4328C54.9257 34.3405 55.2043 34.1559 55.3889 34.0619C55.4813 33.9696 55.3889 33.9696 55.4813 34.0619C55.5736 33.9696 55.4813 33.9696 55.5736 33.8773L56.8692 33.1371C56.9616 33.1371 57.1462 33.0448 57.2402 32.9525L57.7957 32.5816C57.8572 32.5816 57.9188 32.5508 57.9803 32.4893H58.1649C58.3496 32.3046 59.6469 31.6568 60.0161 31.3782L61.3118 30.6381L61.3052 30.6414Z" stroke="white" stroke-width="0.46" stroke-miterlimit="2.61"/>
<path fill-rule="evenodd" clip-rule="evenodd" d="M61.3077 30.6248C61.2549 30.5457 61.2022 30.4666 61.1494 30.3627C61.0703 30.2836 61.0192 30.2045 60.9664 30.127L60.8082 29.9176L60.7818 29.8913L60.6499 29.6819C60.4406 29.7874 60.256 29.9704 60.0466 30.1023C59.89 30.2341 59.7581 30.3644 59.5751 30.4699L59.3922 30.5754C59.2603 30.7056 59.0773 30.8111 58.9191 30.9166L58.8399 30.9694V30.9957H58.8136C58.8136 30.9957 58.7872 31.0221 58.7608 31.0221C58.7608 31.0485 58.7344 31.0749 58.7344 31.0749L58.5515 31.1804C58.5251 31.2067 58.4987 31.2331 58.4723 31.2595C58.3668 31.3386 58.446 31.2859 58.3668 31.3122C58.2877 31.3386 58.3405 31.3122 58.3141 31.3386C58.2102 31.4952 57.9729 31.5743 57.8426 31.7062C57.7371 31.7853 57.7371 31.759 57.6596 31.7853C57.6596 31.8908 57.4223 32.0211 57.3184 32.0738C57.2393 32.1266 57.1882 32.1793 57.1091 32.2321C57.0563 32.2848 57.0563 32.2584 57.0036 32.2848C56.9772 32.3112 56.9772 32.3376 56.9244 32.3639C56.8981 32.3639 56.8717 32.3903 56.8717 32.3903L56.5568 32.626C56.5041 32.6524 56.4513 32.6524 56.3986 32.7052C56.3458 32.7579 56.425 32.7315 56.3458 32.7843C56.2156 32.8634 56.2667 32.7579 56.1876 32.8634L56.1612 32.8898C56.1085 32.9689 55.7936 33.1783 55.7145 33.231L54.8227 33.8607C54.7435 33.9135 54.6908 33.991 54.6133 34.019C54.5078 34.0454 54.5342 34.0717 54.4551 34.1492L54.1402 34.3586C54.0083 34.4377 53.8781 34.5943 53.7462 34.6471L53.6424 34.6998C53.5896 34.7789 53.4577 34.8828 53.3539 34.9092C53.2748 34.9619 53.3275 34.9355 53.2237 35.0147L52.8561 35.2768C52.6995 35.4086 52.5148 35.5141 52.3846 35.6444C52.3055 35.6971 52.3582 35.6707 52.2791 35.7235C52.2 35.7762 52.1208 35.8026 52.0697 35.8817L51.834 36.0136C51.8076 36.0136 51.834 35.9872 51.8076 36.0136L51.7285 36.1438L54.7205 34.4113C54.9034 34.3058 55.1672 34.1228 55.3502 34.0437C55.4557 34.0173 55.3502 34.0173 55.4804 34.0437C55.5331 33.9382 55.454 33.991 55.6123 33.9135L56.8717 33.1783C57.0036 33.0992 57.1091 33.0481 57.2657 32.9689L57.8162 32.6277C57.8954 32.6013 57.9218 32.5486 58.0009 32.5222L58.1311 32.4694C58.3141 32.2865 59.6263 31.6304 59.9939 31.3666L61.306 30.6314L61.3077 30.6248Z" fill="#2E3191"/>
<path d="M17.9519 24.5783C17.675 24.6706 17.4887 24.6707 17.2118 24.763H16.7486C16.2854 24.8553 15.5452 25.0399 14.8974 25.0399L13.4154 25.2245C13.4154 25.2245 13.6 25.3168 13.6923 25.3168L13.7847 25.4092C13.877 25.5938 14.3402 25.7801 14.5248 25.8724L14.988 26.1493C15.0803 26.2416 15.0803 26.3339 15.1727 26.3339L15.8205 26.7048C15.9128 26.7048 15.9128 26.7972 16.0051 26.7972C16.0667 26.8587 16.1282 26.8895 16.1897 26.8895L17.9486 28.0928C18.1333 28.2775 18.5965 27.9082 18.8751 27.7219L19.246 27.445C19.3075 27.445 19.3691 27.4142 19.4306 27.3527C19.6152 27.3527 19.8938 27.2604 20.1708 27.3527C20.4477 27.3527 20.4477 27.445 20.3554 27.5373C20.0784 27.7219 19.8922 28.0928 19.6152 28.2775V28.3698L19.3383 28.6467C19.246 28.739 19.0614 28.9236 18.9674 29.0176L19.152 29.2946C19.2443 29.3869 19.7075 29.7578 19.5229 29.7578C19.4306 29.7578 19.4306 29.6655 19.4306 29.6655H19.246C19.0614 29.4808 18.7828 29.4808 18.5058 29.3885C18.3212 29.2962 17.858 29.2039 17.6734 29.0176H17.4887L16.8409 28.7407C16.7486 28.6484 16.6563 28.6484 16.5639 28.556L15.8238 28.1851C15.6392 28.0928 15.176 27.9082 14.8974 27.7219L12.9538 26.7955V26.9801L13.1385 27.1648C13.1385 27.2571 13.2308 27.3494 13.2308 27.3494L13.6017 27.9049C13.6017 27.9049 13.694 27.9972 13.694 28.0895L14.3418 29.016L14.5265 29.4792C14.5265 29.6638 13.7863 29.4792 13.694 29.4792L13.5094 29.3869C13.4171 29.3869 13.1385 29.2022 13.0462 29.016L12.7692 28.739L12.3983 28.2758V28.1835H12.306C12.306 28.0912 12.2137 27.9989 12.1214 27.9066C12.1214 27.8142 12.0291 27.9066 12.0291 27.8142C12.0291 27.7219 11.9367 27.6296 11.8444 27.5373C11.7521 27.445 11.6598 27.2604 11.5675 27.1664H11.4752C11.4752 27.0741 11.3829 27.0741 11.3829 26.9818L11.012 26.5186L10.9196 26.3339H10.8273V26.2416H10.735C10.735 26.1493 10.6427 26.1493 10.6427 26.1493L10.5504 26.057C10.5504 25.8724 10.4581 25.8724 10.4581 25.8724H10.3658C10.3658 25.7801 10.4581 25.7801 10.3658 25.6877C10.2735 25.5954 10.2735 25.6877 10.2735 25.5954C10.2119 25.5339 10.0883 25.4723 9.90255 25.4108L8.14366 24.3921L8.05134 24.2997C7.86672 24.2074 7.7744 24.1151 7.58813 23.9288L7.49581 23.8365C7.4035 23.7442 7.31119 23.7442 7.31119 23.6519C7.12656 23.375 7.21888 23.6519 7.12656 23.375C7.03425 23.2827 6.10782 22.1716 7.31119 22.1716C7.68209 22.1716 7.95903 22.2639 8.32993 22.3562L9.07009 22.6332C9.13163 22.6947 9.19317 22.7255 9.25471 22.7255L9.62561 22.9101H9.71793C9.71793 23.0024 9.71793 22.9101 9.81024 23.0024L10.0872 23.187C10.2718 23.187 10.9196 23.6503 11.0136 23.7426C11.2906 23.8349 11.5691 23.7426 11.8461 23.7426C12.0307 23.7426 12.0307 23.8349 12.217 23.8349H14.6237C14.716 23.8349 14.8083 23.9272 14.9946 23.9272H16.5689L17.1244 24.0195C17.2167 24.0195 17.1244 24.0195 17.2167 24.1118C17.4014 24.1118 17.5876 24.2041 17.7723 24.2965C17.8646 24.3888 17.9569 24.4811 17.9569 24.5734L17.9519 24.5783Z" stroke="white" stroke-width="0.46" stroke-miterlimit="2.61"/>
<path fill-rule="evenodd" clip-rule="evenodd" d="M17.9466 24.5635C17.6318 24.6426 17.4999 24.6937 17.185 24.7465L16.7647 24.7992C16.3179 24.8256 15.5053 24.9822 14.9283 25.0086L13.4068 25.1668C13.4595 25.2196 13.6161 25.3251 13.6953 25.3498L13.748 25.3762C13.9063 25.5592 14.2986 25.7438 14.5096 25.9004L15.0074 26.1889C15.0865 26.2416 15.1129 26.2944 15.1904 26.3471L15.7937 26.7147C15.8992 26.7411 15.8729 26.7675 15.9784 26.8202C16.0575 26.8994 16.0575 26.873 16.1613 26.9241L17.9713 28.1307C18.1807 28.2626 18.5483 27.9214 18.8368 27.7368L19.2571 27.4747C19.3099 27.4219 19.3363 27.3955 19.4154 27.3692C19.6528 27.3164 19.9132 27.2389 20.2033 27.29C20.4127 27.3164 20.4654 27.3955 20.3599 27.4994C20.1242 27.7087 19.8621 28.05 19.6511 28.2873L19.572 28.3665V28.3929L19.3626 28.6022C19.2324 28.7605 19.0742 28.8907 18.995 29.0489L19.178 29.2583C19.2571 29.3902 19.7022 29.7561 19.5192 29.705C19.4401 29.705 19.4665 29.6786 19.4137 29.6523L19.2308 29.6259C19.0214 29.494 18.7329 29.4413 18.4955 29.3638C18.2862 29.2583 17.8131 29.1544 17.6301 29.0489C17.5949 29.0313 17.5515 29.0138 17.4999 28.9962L16.8174 28.6813C16.7383 28.6286 16.6592 28.6022 16.5817 28.5495L15.8201 28.2082C15.6108 28.0516 15.1904 27.867 14.9283 27.7368L12.96 26.7922C12.9073 26.9224 12.9864 26.9505 12.9864 26.9505L13.1166 27.1334L13.143 27.1862C13.1694 27.2389 13.2221 27.3164 13.2485 27.3692L13.5898 27.867C13.6161 27.9197 13.6689 27.9725 13.6953 28.0516L14.2986 28.9698C14.3513 29.0489 14.2722 28.9434 14.325 29.0226L14.4832 29.4429C14.4832 29.6275 13.748 29.522 13.6442 29.4693L13.4859 29.4165C13.3804 29.3902 13.1447 29.1544 13.0128 29.0226C12.9073 28.9171 12.8545 28.7868 12.7507 28.6813L12.4095 28.261C12.3919 28.2434 12.3743 28.2258 12.3567 28.2082C12.3567 28.1906 12.3479 28.1818 12.3303 28.1818C12.2512 28.0763 12.1721 27.9461 12.0946 27.867C12.0682 27.8406 12.0419 27.867 12.0419 27.8142C11.9891 27.7104 11.8836 27.6049 11.8325 27.4994C11.727 27.3939 11.6495 27.2637 11.5177 27.1845L11.4913 27.1582V27.1318C11.4385 27.0263 11.4122 27.0527 11.3594 26.9488L10.9918 26.5021H10.9654L10.8599 26.3438L10.8072 26.2911L10.7808 26.2383L10.7544 26.212C10.7017 26.1592 10.6753 26.1856 10.6753 26.1328L10.5714 26.0026C10.5187 25.8971 10.4396 25.8443 10.4132 25.8196H10.3868C10.3341 25.7932 10.4132 25.7669 10.3077 25.6614C10.2549 25.6086 10.2813 25.6614 10.2549 25.6086C10.1494 25.4504 10.1247 25.4767 9.91371 25.3729L8.15481 24.3492H8.12843L8.04931 24.2701C7.89106 24.1646 7.73445 24.0607 7.60258 23.9025L7.47235 23.7722C7.39322 23.7195 7.3141 23.6931 7.28772 23.614L7.26135 23.5876C7.13112 23.3783 7.18222 23.5876 7.07837 23.3783C7.02562 23.248 6.10743 22.1716 7.28772 22.1716C7.6817 22.1716 7.97018 22.2771 8.31141 22.381L9.073 22.6431C9.12575 22.6694 9.15212 22.6958 9.20322 22.7222L9.62358 22.8804H9.64995L9.67633 22.9068V22.9332C9.72908 22.9859 9.67633 22.9332 9.75546 22.9596L10.0703 23.1425C10.2269 23.2217 10.883 23.6684 11.0412 23.7195C11.277 23.7722 11.5918 23.7459 11.8028 23.7459C11.9858 23.7459 12.0386 23.7722 12.1968 23.7722C12.9848 23.7722 13.7975 23.8514 14.5854 23.8514C14.7437 23.8514 14.7948 23.8777 14.9794 23.8777C15.5036 23.8777 16.0558 23.9041 16.58 23.9305L17.1043 24.0096C17.157 24.0096 17.1043 24.0096 17.1834 24.0624C17.3927 24.1415 17.5774 24.2206 17.7603 24.3245C17.8395 24.4036 17.9169 24.4547 17.9433 24.5602" fill="#2E3191"/>
<path d="M16.2953 29.6885C18.1465 31.1705 22.2198 34.4097 24.5343 35.6131C24.6266 35.6131 24.6266 35.7054 24.8112 35.7977C24.9035 35.89 25.0881 36.0746 25.2744 36.0746C25.2129 36.1362 25.0585 36.1054 24.8112 35.9823V35.89H24.7189C24.6266 35.7977 19.5345 32.8354 19.3499 32.8354C18.1465 32.1876 16.9431 31.3535 15.6475 30.6133L16.2953 29.6869V29.6885Z" stroke="white" stroke-width="0.46" stroke-miterlimit="2.61"/>
<path fill-rule="evenodd" clip-rule="evenodd" d="M16.2935 29.6803C18.1562 31.1491 22.223 34.4031 24.5061 35.585C24.6116 35.6378 24.6643 35.7153 24.7945 35.7944C24.9264 35.8735 25.083 36.0565 25.2413 36.0829C25.1621 36.162 25.2149 36.1356 24.8473 35.9246L24.8209 35.8983L24.7154 35.8455H24.689C24.5835 35.7664 19.4931 32.8008 19.3612 32.7761C18.1018 32.1464 16.9215 31.332 15.6357 30.6249L16.2918 29.6803H16.2935Z" fill="#2E3191"/>
<path d="M21.073 30.6414C21.1653 30.5491 21.1653 30.4567 21.2576 30.3644C21.3499 30.2721 21.3499 30.1798 21.4423 30.1798L21.5346 29.9029H21.6269L21.7192 29.7182C21.9038 29.8105 22.0901 29.9952 22.367 30.0891C22.4593 30.2738 22.644 30.3661 22.8302 30.46L23.0149 30.5523C23.1072 30.737 23.2918 30.8293 23.4781 30.9232L23.5704 31.0156H23.6627V31.1079L23.8473 31.2002L23.9397 31.2925C24.032 31.3848 23.9397 31.2925 24.032 31.2925C24.1243 31.3848 24.032 31.2925 24.032 31.3848C24.1243 31.4771 24.4029 31.5694 24.4952 31.7557H24.6798C24.6798 31.9403 24.9568 32.0327 25.0507 32.0327C25.143 32.125 25.143 32.2173 25.2353 32.2173C25.3277 32.3096 25.3277 32.2173 25.3277 32.3096C25.3892 32.3096 25.42 32.3404 25.42 32.4019H25.5123L25.7892 32.5865C25.8815 32.6789 25.9738 32.6789 25.9738 32.6789C26.0662 32.7712 25.9738 32.7712 26.0662 32.7712L26.1585 32.8635H26.2508C26.2508 32.9558 26.6217 33.1404 26.6217 33.2344L27.5481 33.8822C27.6404 33.8822 27.7327 33.9745 27.7327 33.9745C27.7943 34.0361 27.8558 34.0976 27.9174 34.1592L28.1943 34.3438C28.3789 34.4361 28.4713 34.6207 28.6575 34.6207L28.7498 34.713C28.7498 34.8054 28.9345 34.8977 29.0268 34.8977L29.1191 34.99L29.49 35.2669C29.6746 35.3592 29.8609 35.5439 29.9532 35.6378C30.0455 35.7301 30.0455 35.6378 30.0455 35.7301C30.1378 35.7301 30.2301 35.8224 30.3225 35.9148L30.5071 36.0071H30.5994L30.6917 36.0994L27.6371 34.4328C27.4525 34.3405 27.1739 34.1559 26.9893 34.0619C26.897 33.9696 26.9893 33.9696 26.897 34.0619C26.8047 33.9696 26.897 33.9696 26.8047 33.8773L25.509 33.1371C25.3244 33.1371 25.232 33.0448 25.1381 32.9525L24.5826 32.5816C24.521 32.5816 24.4595 32.5508 24.3979 32.4893H24.2133C24.0287 32.3046 22.7313 31.6568 22.3621 31.3782L21.0664 30.6381L21.073 30.6414Z" stroke="white" stroke-width="0.46" stroke-miterlimit="2.61"/>
<path fill-rule="evenodd" clip-rule="evenodd" d="M21.0684 30.6249C21.1211 30.5457 21.1739 30.4666 21.2266 30.3628C21.3057 30.2836 21.3568 30.2045 21.4096 30.127L21.5678 29.9177L21.5942 29.8913L21.7261 29.6819C21.9354 29.7874 22.1201 29.9704 22.3294 30.1023C22.486 30.2342 22.6179 30.3644 22.8009 30.4699L22.9839 30.5754C23.1157 30.7056 23.2987 30.8111 23.457 30.9166L23.5361 30.9694V30.9958H23.5625C23.5625 30.9958 23.5888 31.0221 23.6152 31.0221C23.6152 31.0485 23.6416 31.0749 23.6416 31.0749L23.8246 31.1804C23.8509 31.2068 23.8773 31.2331 23.9037 31.2595C24.0092 31.3386 23.9301 31.2859 24.0092 31.3123C24.0883 31.3386 24.0356 31.3123 24.0619 31.3386C24.1674 31.4952 24.4032 31.5744 24.5334 31.7062C24.6389 31.7854 24.6389 31.759 24.718 31.7854C24.718 31.8909 24.9538 32.0211 25.0593 32.0738C25.1384 32.1266 25.1895 32.1793 25.2686 32.2321C25.3214 32.2848 25.3214 32.2585 25.3741 32.2849C25.4005 32.3112 25.4005 32.3376 25.4532 32.364C25.4796 32.364 25.506 32.3904 25.506 32.3904L25.8208 32.6261C25.8736 32.6525 25.9263 32.6525 25.9791 32.7052C26.0318 32.758 25.9527 32.7316 26.0318 32.7843C26.1621 32.8635 26.111 32.758 26.1901 32.8635L26.2165 32.8898C26.2692 32.969 26.5841 33.1783 26.6632 33.2311L27.555 33.8608C27.6341 33.9135 27.6869 33.991 27.7644 34.019C27.8699 34.0454 27.8435 34.0718 27.9226 34.1492L28.2375 34.3586C28.3677 34.4377 28.4996 34.5943 28.6315 34.6471L28.737 34.6998C28.7897 34.779 28.9199 34.8828 29.0254 34.9092C29.1046 34.9619 29.0518 34.9356 29.1557 35.0147L29.5233 35.2768C29.6815 35.4087 29.8645 35.5142 29.9947 35.6444C30.0738 35.6971 30.0211 35.6708 30.1002 35.7235C30.1793 35.7763 30.2585 35.8026 30.3096 35.8818L30.5453 36.0136C30.5717 36.0136 30.5453 35.9873 30.5717 36.0136L30.6508 36.1439L27.6589 34.4113C27.4759 34.3058 27.2121 34.1229 27.0292 34.0437C26.9237 34.0174 27.0292 34.0174 26.8973 34.0437C26.8445 33.9382 26.9237 33.991 26.7671 33.9135L25.5076 33.1783C25.3774 33.0992 25.2719 33.0481 25.1153 32.969L24.5647 32.6277C24.4856 32.6014 24.4592 32.5486 24.3801 32.5222L24.2499 32.4695C24.0669 32.2865 22.7547 31.6304 22.3871 31.3667L21.075 30.6315L21.0684 30.6249Z" fill="#2E3191"/>
<path fill-rule="evenodd" clip-rule="evenodd" d="M0.642578 13.209H21.024C24.7363 13.209 24.5616 13.3953 27.6854 16.1383C31.3582 19.3626 39.7851 36.739 41.1813 41.2475C42.5792 36.739 51.0061 19.361 54.6788 16.1383C57.8026 13.3969 57.6279 13.209 61.3402 13.209H81.7217C78.588 16.1844 76.6115 18.0389 75.1262 19.1978C70.3358 22.9299 63.4107 19.9033 57.2372 22.864C53.9469 24.4415 52.4534 27.178 50.073 31.3716C46.491 37.6835 41.3824 46.4088 41.1829 46.75C40.9835 46.4088 35.8766 37.6852 32.2928 31.3716C29.9125 27.178 28.4173 24.4415 25.1287 22.864C18.9552 19.9033 12.0301 22.9299 7.23968 19.1978C5.75278 18.0406 3.77628 16.1844 0.644227 13.209" fill="#EC1C24"/>
</svg>
